<?xml version="1.0" encoding="utf-8"?>
<!-- Generator: Adobe Illustrator 18.0.0, SVG Export Plug-In . SVG Version: 6.00 Build 0)  -->
<!DOCTYPE svg PUBLIC "-//W3C//DTD SVG 1.1//EN" "http://www.w3.org/Graphics/SVG/1.1/DTD/svg11.dtd">
<svg version="1.1" id="Слой_1" xmlns="http://www.w3.org/2000/svg" xmlns:xlink="http://www.w3.org/1999/xlink" x="0px" y="0px"
	 viewBox="0 0 595.3 841.9" enable-background="new 0 0 595.3 841.9" xml:space="preserve">
<g>
	<path id="path396" fill="#231F20" d="M543.6,429.6c-1,0-1.7-0.9-1.7-1.9c0-1,0.9-1.7,1.9-1.7c1,0,1.7,0.9,1.7,1.9
		C545.4,428.9,544.6,429.6,543.6,429.6 M539.1,417.5c-1.1-0.1-1.9-1-1.9-2.1c0-1.1,1-1.9,2.1-1.9c1.1,0,1.9,1,1.9,2.1
		C541.1,416.7,540.2,417.6,539.1,417.5 M533.2,408c-1.2-0.1-2.1-1.1-2.1-2.3c0.1-1.2,1.1-2.1,2.3-2.1s2.1,1.1,2.1,2.3
		C535.4,407.2,534.4,408.1,533.2,408 M526.1,400.9c-1.3-0.1-2.3-1.2-2.3-2.5s1.2-2.3,2.5-2.3c1.3,0.1,2.3,1.2,2.3,2.5
		C528.5,400,527.4,401,526.1,400.9 M517.8,396c-1.4-0.1-2.5-1.3-2.5-2.7c0.1-1.4,1.3-2.5,2.7-2.5c1.4,0.1,2.5,1.3,2.5,2.7
		C520.4,394.9,519.2,396,517.8,396 M508.4,392.9c-1.5-0.1-2.7-1.4-2.6-2.9c0.1-1.5,1.4-2.7,2.9-2.6c1.5,0.1,2.7,1.4,2.6,2.9
		C511.3,391.8,510,393,508.4,392.9 M498.1,391.5c-1.6-0.1-2.9-1.5-2.8-3.1c0.1-1.6,1.5-2.9,3.1-2.8c1.6,0.1,2.9,1.5,2.8,3.1
		C501.2,390.3,499.8,391.6,498.1,391.5 M487,391.6c-1.8-0.1-3.1-1.6-3-3.3c0.1-1.8,1.6-3.1,3.3-3c1.8,0.1,3.1,1.6,3,3.3
		C490.2,390.3,488.7,391.6,487,391.6 M475,392.8c-1.9-0.1-3.3-1.7-3.2-3.5c0.1-1.9,1.7-3.3,3.5-3.2c1.9,0.1,3.3,1.7,3.2,3.5
		C478.5,391.5,476.9,392.9,475,392.8 M462.4,395.1c-2-0.1-3.5-1.8-3.4-3.7c0.1-2,1.8-3.5,3.7-3.4c2,0.1,3.5,1.8,3.4,3.7
		C466.1,393.7,464.4,395.2,462.4,395.1 M450,398.1c-0.2,0-0.5,0.1-0.8,0c-1.1-0.1-2-0.5-2.7-1.3c-0.6-0.7-1-1.6-0.9-2.7
		c0.1-2.1,1.9-3.7,4-3.6c2.1,0.1,3.7,1.9,3.6,4C453.1,396.3,451.8,397.8,450,398.1 M439.7,398.5c-0.4,1.9-2.1,3.3-4.1,3.2
		c-2.2-0.1-3.9-2-3.8-4.2c0.1-1.4,0.8-2.5,1.9-3.2c0.7-0.4,1.5-0.6,2.3-0.6c2.2,0.1,3.9,2,3.8,4.2
		C439.8,398.1,439.7,398.3,439.7,398.5 M434.9,480.4c0.4-0.6,0.8-1.1,1.4-1.4c1.2-0.8,2.8-0.8,4.2,0c1.6,0.9,2.3,2.8,1.9,4.6
		c-0.1,0.3-0.2,0.7-0.4,1c-0.3,0.4-0.6,0.8-0.9,1.1c-1.3,1-3.1,1.2-4.6,0.4c-1.3-0.8-2-2.2-2-3.6C434.3,481.6,434.5,481,434.9,480.4
		 M449.1,485.7c1.1-1.8,3.4-2.4,5.2-1.4c1.8,1.1,2.4,3.4,1.4,5.2c-1.1,1.8-3.4,2.4-5.2,1.4C448.7,489.9,448.1,487.5,449.1,485.7
		 M462.3,491.2c1-1.7,3.2-2.3,4.9-1.3c1.7,1,2.3,3.2,1.3,4.9c-1,1.7-3.2,2.3-4.9,1.3C461.9,495.1,461.3,492.9,462.3,491.2
		 M474.2,497.1c0.9-1.6,3-2.1,4.5-1.2c1.6,0.9,2.1,2.9,1.2,4.5c-0.9,1.6-2.9,2.1-4.5,1.2C473.8,500.7,473.3,498.7,474.2,497.1
		 M484.5,503.8c0.9-1.5,2.7-1.9,4.2-1.1c1.5,0.9,1.9,2.7,1.1,4.2c-0.9,1.5-2.7,1.9-4.2,1.1C484.1,507.1,483.6,505.2,484.5,503.8
		 M492.8,511.4c0.8-1.3,2.5-1.8,3.8-1c1.3,0.8,1.8,2.5,1,3.8c-0.8,1.3-2.5,1.8-3.8,1C492.5,514.4,492,512.7,492.8,511.4
		 M498.9,520.3c0.7-1.2,2.3-1.6,3.5-0.9c1.2,0.7,1.6,2.3,0.9,3.5c-0.7,1.2-2.3,1.6-3.5,0.9C498.6,523.1,498.2,521.5,498.9,520.3
		 M505.6,529.9c1.1,0.6,1.4,2,0.8,3.1c-0.6,1.1-2,1.4-3.1,0.8c-1.1-0.6-1.4-2-0.8-3.1C503.1,529.7,504.5,529.3,505.6,529.9
		 M506.8,545.1c-0.6,1-1.8,1.3-2.8,0.7c-1-0.6-1.3-1.8-0.7-2.8c0.6-1,1.8-1.3,2.8-0.7C507,542.9,507.4,544.1,506.8,545.1
		 M504.1,559.2c-0.5,0.8-1.6,1.1-2.4,0.6c-0.8-0.5-1.1-1.6-0.6-2.4c0.5-0.8,1.6-1.1,2.4-0.6C504.3,557.3,504.6,558.4,504.1,559.2
		 M427.3,479.3c-1.2,2.1-3.9,2.7-5.9,1.5c-2.1-1.2-2.7-3.9-1.5-5.9c1.2-2.1,3.9-2.7,5.9-1.5c0.3,0.2,0.5,0.3,0.7,0.5
		c0.6,0.6,1.1,1.3,1.3,2.2C428,477.1,427.9,478.3,427.3,479.3 M417.6,401.1c0.1-2.3,2.1-4.1,4.4-4c2.3,0.1,4.1,2.1,4,4.4
		c-0.1,2.3-2.1,4.1-4.4,4C419.3,405.4,417.5,403.4,417.6,401.1 M412.3,473.7c-1.3,2.2-4.1,2.9-6.3,1.6c-2.2-1.3-2.9-4.1-1.6-6.3
		c1.3-2.2,4.1-2.9,6.3-1.6C412.8,468.7,413.5,471.5,412.3,473.7 M403.1,404.8c0.1-2.4,2.2-4.3,4.6-4.2c2.4,0.1,4.3,2.2,4.2,4.6
		c-0.1,2.4-2.2,4.3-4.6,4.2C404.9,409.3,403,407.2,403.1,404.8 M401.6,277.8c1.2-1.5,3.5-1.8,5-0.6c1.5,1.2,1.8,3.5,0.6,5
		c-1.2,1.5-3.5,1.8-5,0.6C400.6,281.6,400.3,279.3,401.6,277.8 M400.2,294.5c-1.3,1.6-3.7,1.9-5.4,0.6c-1.6-1.3-1.9-3.7-0.6-5.4
		c1.3-1.6,3.7-1.9,5.4-0.6C401.2,290.5,401.5,292.9,400.2,294.5 M397,467.4c-1.4,2.3-4.3,3.1-6.6,1.7c-2.3-1.3-3.1-4.3-1.7-6.6
		c1.4-2.3,4.3-3.1,6.6-1.7C397.6,462.1,398.4,465.1,397,467.4 M397.6,408.7c-0.1,2.5-2.3,4.5-4.8,4.4c-2.5-0.1-4.5-2.3-4.4-4.8
		c0.1-2.5,2.3-4.5,4.8-4.4C395.8,404.1,397.7,406.2,397.6,408.7 M387.6,308.5c-0.8-0.6-1.3-1.5-1.4-2.4c-0.2-1.1,0-2.4,0.8-3.3
		c1.4-1.8,4-2.1,5.7-0.7l0.2,0.2c0.4,0.4,0.7,0.8,0.9,1.2c0.7,1.4,0.5,3-0.5,4.3c-1.3,1.6-3.6,2-5.3,0.9
		C387.9,308.7,387.7,308.6,387.6,308.5 M386.2,321.9c-1.5,1.9-4.2,2.2-6.1,0.7c-1.9-1.5-2.2-4.2-0.7-6.1c1.5-1.9,4.2-2.2,6.1-0.7
		C387.3,317.3,387.6,320,386.2,321.9 M383.3,400.2c-0.6,0.2-1.5,0.5-2.6,0.7c-1.2,0.2-2.6,0.3-4.2,0.4c-1.6,0.1-3.5,0.1-5.5,0
		c-3.9-0.1-8.3-0.2-13.1-0.3c-5.1,0-10.6,0.1-16.1,0.6c-2.6,0.3-5.3,0.7-7.8,1.2c-1.3,0.3-2.5,0.5-3.8,0.9c-0.6,0.2-1.2,0.3-1.8,0.5
		c-0.6,0.2-1.2,0.4-1.8,0.6c-2.4,0.7-4.6,1.6-6.6,2.6c-1,0.5-2,1-2.9,1.5c-0.9,0.5-1.8,1.1-2.6,1.6c-0.8,0.6-1.6,1.1-2.3,1.6
		c-0.7,0.5-1.4,1.1-2,1.6c-0.3,0.2-0.6,0.5-0.9,0.7c-0.3,0.3-0.5,0.5-0.8,0.7c-0.4,0.4-0.8,0.7-1.1,1l-0.3,0.3
		c-0.8,0.8-1.4,1.5-1.8,1.9c-0.4,0.5-0.6,0.7-0.6,0.7l-1.4-1.2c0,0,0.2-0.2,0.7-0.7c0.4-0.5,1.1-1.1,1.9-2c0.4-0.4,0.9-0.8,1.5-1.3
		c0.3-0.2,0.5-0.5,0.8-0.7c0.3-0.2,0.6-0.5,0.9-0.7l0.1-0.1c0.7-0.5,1.3-1.1,2.1-1.6c0.8-0.5,1.6-1,2.4-1.6c0.9-0.5,1.8-1,2.8-1.6
		c1-0.5,2-1,3-1.5c2.1-0.9,4.4-1.8,6.8-2.5c0.6-0.2,1.2-0.4,1.8-0.5c0.6-0.1,1.3-0.3,1.9-0.4c1.3-0.3,2.6-0.5,3.8-0.8
		c2.6-0.4,5.3-0.8,7.9-1c3.6-0.3,7.2-0.4,10.6-0.4c1,0,2,0,3,0c5.8,0.1,11.2,0.5,15.7,0.6c2,0.1,3.8,0.1,5.4,0.1
		c1.6,0,3-0.1,4.2-0.3C381.8,400.6,382.7,400.4,383.3,400.2c0.6-0.3,0.9-0.4,0.9-0.4S383.9,399.9,383.3,400.2 M378.3,416.4
		c-2.6-0.1-4.7-2.4-4.6-5c0.1-2.6,2.4-4.7,5-4.6c2.6,0.1,4.7,2.4,4.6,5C383.1,414.5,380.9,416.6,378.3,416.4 M382,460.1
		c-1.4,2.4-4.5,3.2-7,1.8c-2.4-1.4-3.2-4.5-1.8-7c1.4-2.4,4.5-3.2,7-1.8C382.6,454.6,383.4,457.7,382,460.1 M382.8,560.3
		c1.8-0.8,3.9,0,4.7,1.8c0.8,1.8,0,3.9-1.8,4.7c-1.8,0.8-3.9,0-4.7-1.8C380.2,563.2,381,561.1,382.8,560.3 M388.9,569.7
		c1.7-0.8,3.7,0,4.5,1.7c0.8,1.7,0,3.7-1.7,4.5c-1.7,0.8-3.7,0-4.5-1.7C386.5,572.4,387.2,570.4,388.9,569.7 M394.4,632.8
		c0.4,1,0,2.2-1,2.6c-1,0.4-2.2,0-2.6-1c-0.4-1,0-2.2,1-2.6C392.8,631.4,394,631.8,394.4,632.8 M378.9,557.7c-1.9,0.8-4.1,0-5-1.9
		c-0.8-1.9,0-4.1,1.9-5c1.4-0.6,3-0.3,4.1,0.7c0.4,0.3,0.7,0.8,0.9,1.3c0.1,0.2,0.2,0.4,0.2,0.6c0.2,0.8,0.1,1.6-0.1,2.3
		c-0.2,0.5-0.5,0.9-0.9,1.3C379.7,557.2,379.3,557.5,378.9,557.7 M371.4,548.2c-2,0.9-4.4,0-5.3-2c-0.9-2,0-4.4,2-5.3
		c2-0.9,4.4,0,5.3,2C374.3,545,373.4,547.4,371.4,548.2 M363.5,538.5c-2.1,0.9-4.6,0-5.5-2.1c-0.9-2.1,0-4.6,2.1-5.5
		c2.1-0.9,4.6,0,5.5,2.1C366.6,535.1,365.6,537.6,363.5,538.5 M355.4,528.5c-2.2,1-4.8,0-5.8-2.2c-1-2.2,0-4.8,2.2-5.8
		c2.2-1,4.8,0,5.8,2.2C358.6,524.9,357.6,527.5,355.4,528.5 M347.3,518.1c-2.3,1-5,0-6.1-2.3c-1-2.3,0-5,2.3-6.1c2.3-1,5,0,6.1,2.3
		C350.7,514.4,349.6,517.1,347.3,518.1 M339.3,507.3c-2.4,1.1-5.2,0-6.3-2.4c-1.1-2.4,0-5.2,2.4-6.3c2.4-1.1,5.2,0,6.3,2.4
		C342.9,503.4,341.8,506.3,339.3,507.3 M331.8,496.2c-2.5,1.1-5.5,0-6.6-2.5c-1.1-2.5,0-5.5,2.5-6.6c2.5-1.1,5.5,0,6.6,2.5
		C335.4,492.1,334.3,495,331.8,496.2 M317.9,481.9c-1.2-2.6,0-5.7,2.6-6.9c2.6-1.2,5.7,0,6.9,2.6c1.2,2.6,0,5.7-2.6,6.9
		C322.2,485.7,319.1,484.5,317.9,481.9 M311.5,469.7c-1.2-2.7,0-5.9,2.7-7.1c2.7-1.2,5.9,0,7.1,2.7c1.2,2.7,0,5.9-2.7,7.1
		C315.9,473.6,312.7,472.4,311.5,469.7 M321.1,421.1c-3.1-0.1-5.5-2.8-5.3-5.9c0.1-3.1,2.8-5.5,5.9-5.3c3.1,0.1,5.5,2.8,5.3,5.9
		C326.8,418.9,324.2,421.3,321.1,421.1 M359,413.9c0.1-2.8,2.5-4.9,5.2-4.8c2.8,0.1,4.9,2.5,4.8,5.2c-0.1,2.8-2.5,4.9-5.2,4.8
		C361,419,358.8,416.7,359,413.9 M365.4,444.3c2.5,1.5,3.4,4.8,1.9,7.3c-1.5,2.5-4.8,3.4-7.3,1.9c-2.5-1.5-3.4-4.8-1.9-7.3
		C359.6,443.6,362.8,442.8,365.4,444.3 M344.3,415.5c0.1-2.9,2.6-5.1,5.4-4.9c2.9,0.1,5.1,2.6,4.9,5.4c-0.1,2.9-2.6,5.1-5.4,4.9
		C346.4,420.8,344.2,418.4,344.3,415.5 M351.3,433.9c1.1,0.6,1.8,1.5,2.3,2.6c0.7,1.6,0.6,3.5-0.3,5.1c-1.6,2.7-5,3.6-7.7,2
		c-2.6-1.5-3.5-4.7-2.2-7.3l0.2-0.3C345.2,433.2,348.7,432.3,351.3,433.9 M329.9,416.1c0.1-3,2.7-5.3,5.6-5.1c3,0.1,5.3,2.7,5.1,5.6
		c-0.1,3-2.7,5.3-5.6,5.1C332.1,421.6,329.8,419,329.9,416.1 M330,436.1c0.3,0.3,0.5,0.6,0.8,1c0.6,0.8,1.2,1.6,1.9,2.4l0.5,0.7
		c0.3,0.4,0.6,0.8,0.8,1.2c0.5,0.7,1,1.5,1.5,2.3c1.4,2.1,2.7,4.6,4.3,7.8c1.6,3.4,2.8,6.1,3.8,8.7c0.2,0.6,0.4,1.1,0.6,1.7l0.2,0.7
		c0.5,1.3,1,2.6,1.4,4l0.2,0.7c0.2,0.7,0.5,1.4,0.7,2.1c1.3,3.8,2.4,7.7,3.6,11.5c0.7,2.3,1.4,4.6,2.1,6.8c1,3.1,1.9,5.8,2.7,8.3
		c1.1,3,2,5.3,2.8,7.3c0.5,1.3,1,2.3,1.4,3.2c0.5,1,1,2,1.4,2.8c0.4,0.9,0.9,1.6,1.4,2.4l0.6,1.1l1,1.5c0.2,0.3,0.4,0.7,0.6,0.9
		l0.7,2.7l-1.6-2c-0.2-0.3-0.5-0.6-0.7-1l-1.7-2.6c-0.3-0.4-0.5-0.7-0.7-1.1c-0.3-0.4-0.5-0.9-0.8-1.3c-0.5-0.8-1-1.8-1.5-2.8
		c-0.5-0.9-0.9-1.9-1.5-3.2c-0.8-1.9-1.7-4-2.8-6.8l-0.2-0.5c-0.9-2.5-1.9-5.2-2.9-8.3c-0.7-2.2-1.5-4.5-2.2-6.8
		c-1.2-3.7-2.4-7.6-3.8-11.4l-0.2-0.4c-1-3-2.1-5.9-3.2-8.6c-1.3-3.3-2.8-6.4-3.8-8.5c-1.6-3.1-3-5.5-4.3-7.5
		c-0.5-0.8-1-1.5-1.5-2.1c-0.3-0.4-0.6-0.8-0.8-1.2l-0.6-0.7c-0.6-0.8-1.2-1.5-1.8-2.2c-0.3-0.3-0.6-0.6-0.9-0.9
		c-0.5-0.6-1-1.1-1.5-1.5c-0.3-0.3-0.6-0.5-0.8-0.8c-0.5-0.5-0.9-0.9-1.4-1.3l-2.1-1.8l-3.3-2.4l-2.6-1.6l1.5-2.6l4.3,2.9l1.9,1.4
		l2.2,1.9c0.5,0.5,1,1,1.6,1.5l0.8,0.8C328.9,434.9,329.4,435.5,330,436.1 M306,456.9c-1.3-2.8,0-6.1,2.8-7.4c2.8-1.3,6.1,0,7.4,2.8
		c1.3,2.8,0,6.1-2.8,7.4C310.6,461,307.3,459.8,306,456.9 M303.4,437.7c-2-1.4-3-4-2.1-6.5c0.4-1.2,1.1-2.1,2.1-2.7
		c0.4-0.3,0.9-0.5,1.4-0.7c1.1-0.4,2.4-0.4,3.6,0c1.2,0.4,2.2,1.3,2.9,2.3c0.9,1.4,1.1,3.2,0.6,4.8c-1,2.9-4.2,4.5-7.1,3.4
		C304.3,438.2,303.8,438,303.4,437.7 M302.6,448.6c-1,2.8-4,4.3-6.8,3.3c-2.8-1-4.3-4-3.3-6.8c1-2.8,4-4.3,6.8-3.3
		C302.1,442.8,303.5,445.8,302.6,448.6 M295.5,463.6c-0.9,2.7-3.8,4-6.5,3.1c-2.7-0.9-4-3.8-3.1-6.5c0.9-2.7,3.8-4,6.5-3.1
		C295.1,458,296.5,460.9,295.5,463.6 M290.4,479.5c-0.9,2.5-3.6,3.8-6.2,3c-2.5-0.9-3.8-3.6-3-6.2c0.9-2.5,3.6-3.8,6.2-3
		C289.9,474.3,291.3,477,290.4,479.5 M286.7,496.1c-0.8,2.4-3.4,3.6-5.8,2.8c-2.4-0.8-3.6-3.4-2.8-5.8c0.8-2.4,3.4-3.6,5.8-2.8
		C286.3,491.1,287.5,493.7,286.7,496.1 M284,513c-0.8,2.3-3.3,3.4-5.5,2.7c-2.3-0.8-3.4-3.3-2.7-5.5c0.8-2.3,3.3-3.4,5.5-2.7
		C283.6,508.3,284.8,510.8,284,513 M282,529.9c-0.7,2.1-3.1,3.2-5.2,2.5c-2.1-0.7-3.2-3.1-2.5-5.2c0.7-2.1,3.1-3.2,5.2-2.5
		C281.6,525.5,282.8,527.8,282,529.9 M280.2,546.4c-0.1,0.2-0.2,0.4-0.3,0.6c-0.1,0.1-0.2,0.3-0.2,0.4c-1,1.3-2.7,2-4.3,1.4
		c-2-0.7-3-2.9-2.3-4.9c0.7-2,2.9-3,4.9-2.3C279.8,542.2,280.9,544.4,280.2,546.4 M278.2,562.2c-0.6,1.9-2.7,2.8-4.5,2.2l-0.1-0.1
		c-0.2-0.1-0.5-0.2-0.7-0.3c-1.3-0.9-1.9-2.6-1.4-4.1c0.5-1.4,1.8-2.3,3.3-2.4c0.4,0,0.8,0,1.2,0.2l0.1,0
		C277.9,558.4,278.8,560.4,278.2,562.2 M275.5,577c-0.6,1.7-2.5,2.6-4.2,2c-1.7-0.6-2.6-2.5-2-4.2c0.6-1.7,2.5-2.6,4.2-2
		C275.2,573.4,276.1,575.3,275.5,577 M271.8,590.4c-0.6,1.6-2.3,2.4-3.9,1.9c-1.6-0.6-2.4-2.3-1.9-3.9c0.6-1.6,2.3-2.4,3.9-1.9
		C271.6,587.1,272.4,588.8,271.8,590.4 M261.8,575.6c-1.8-0.6-2.7-2.5-2.1-4.3c0.6-1.8,2.5-2.7,4.3-2.1c1.8,0.6,2.7,2.5,2.1,4.3
		C265.5,575.2,263.6,576.2,261.8,575.6 M263.8,583.7c-0.6,1.7-2.4,2.5-4.1,1.9c-1.7-0.6-2.5-2.4-2-4.1c0.6-1.7,2.4-2.5,4.1-2
		C263.5,580.2,264.3,582,263.8,583.7 M260.5,592.9c-0.5,1.6-2.2,2.4-3.8,1.8c-1.6-0.5-2.4-2.2-1.8-3.8c0.5-1.6,2.2-2.4,3.8-1.8
		C260.2,589.7,261,591.4,260.5,592.9 M259.7,611.8c-0.5,1.3-1.9,2-3.2,1.6c-1.3-0.5-2-1.9-1.6-3.2c0.5-1.3,1.9-2,3.2-1.6
		C259.5,609,260.2,610.5,259.7,611.8 M252.5,602.7c-1.4-0.5-2.2-2.1-1.7-3.5c0.5-1.5,2.1-2.2,3.5-1.7c1.4,0.5,2.2,2.1,1.7,3.5
		C255.5,602.5,253.9,603.3,252.5,602.7 M250.4,619.1c-0.4,1.2-1.7,1.8-2.9,1.4c-1.2-0.4-1.8-1.7-1.4-2.9c0.4-1.2,1.7-1.8,2.9-1.4
		C250.2,616.6,250.9,617.9,250.4,619.1 M245.4,606.2c0.5-1.3,1.9-2.1,3.3-1.6c1.3,0.5,2.1,1.9,1.6,3.3c-0.5,1.3-1.9,2.1-3.3,1.6
		C245.6,609,244.9,607.6,245.4,606.2 M255,470.6c-0.3,1.6-0.5,3.4-0.6,5.3l0,0.9c0,0.5-0.1,1-0.1,1.6l0,2.3c0,0.5,0,0.9,0.1,1.4
		c0,0.3,0,0.5,0,0.8c0,0.2,0,0.4,0,0.6c0,0.4,0,0.8,0.1,1.2c0.1,0.5,0.1,0.9,0.2,1.3c0.1,0.7,0.1,1.3,0.2,1.8l-0.7,2.9l-0.6-2.7
		c-0.1-0.5-0.2-1.2-0.3-1.9c-0.1-0.4-0.1-0.8-0.2-1.2c-0.1-0.4-0.1-0.9-0.2-1.3l-0.1-0.6c0-0.2,0-0.5-0.1-0.7c0-0.5-0.1-1-0.1-1.5
		l-0.1-2.3c0-0.5,0-1.1,0-1.6l0-0.9c0.1-2,0.2-3.8,0.5-5.5c0.2-1.8,0.6-3.7,1.1-5.8c0.2-0.6,0.3-1.3,0.5-1.9c0.1-0.3,0.2-0.7,0.3-1
		l0.3-0.9c0.2-0.7,0.4-1.3,0.7-2c0.9-2.3,1.6-4,2.3-5.6c0.7-1.6,1.6-3.2,2.7-5.2c1-1.8,2-3.3,3-4.6c1-1.4,1.9-2.7,2.9-3.9
		c2-2.5,3.8-4.4,4.9-5.5c1.2-1.3,2.1-1.9,2.1-2c0.6-0.5,1.6-0.4,2.1,0.2c0.5,0.6,0.5,1.6-0.2,2.1c0,0-0.8,0.6-2,1.8
		c-1.1,1.1-2.9,2.8-4.9,5.1c-1,1.2-2,2.4-3,3.7c-1,1.3-1.9,2.7-3,4.4c-1.1,1.8-2,3.4-2.8,4.9c-0.8,1.5-1.5,3.1-2.4,5.3
		c-0.2,0.6-0.5,1.2-0.7,1.9l-0.3,0.9c-0.1,0.3-0.2,0.6-0.3,1c-0.2,0.6-0.4,1.2-0.5,1.8C255.7,467.1,255.3,468.9,255,470.6
		 M251.1,436.3c-2.5,1.2-5.5,0.1-6.6-2.4c-1.2-2.5-0.1-5.5,2.4-6.6c2.5-1.2,5.5-0.1,6.6,2.4C254.7,432.2,253.6,435.2,251.1,436.3
		 M262.9,429.2c-2.6,1.2-5.7,0.1-6.9-2.5c-1.2-2.6-0.1-5.7,2.5-6.9c2.6-1.2,5.7-0.1,6.9,2.5C266.6,424.9,265.5,428,262.9,429.2
		 M215.1,439.7c5.7-17.1,47.7-38.8,65.9-35.7C264.7,406.2,227.9,416.6,215.1,439.7 M239.7,444c-2.4,1.1-5.2,0.1-6.4-2.3
		c-1.1-2.4-0.1-5.2,2.3-6.4c2.4-1.1,5.2-0.1,6.4,2.3C243.1,440,242.1,442.9,239.7,444 M228.7,452.1c-2.3,1.1-5,0.1-6.1-2.2
		c-1.1-2.3-0.1-5,2.2-6.1c2.3-1.1,5-0.1,6.1,2.2C232,448.3,231,451,228.7,452.1 M218,460.3c-2.2,1-4.8,0.1-5.8-2.1
		c-1-2.2-0.1-4.8,2.1-5.8c2.2-1,4.8-0.1,5.8,2.1C221.2,456.7,220.2,459.3,218,460.3 M209.1,361.5c1.3-2.2,4.1-2.9,6.3-1.6
		c2.2,1.3,2.9,4.1,1.6,6.3c-1.3,2.2-4.1,2.9-6.3,1.6C208.5,366.5,207.8,363.7,209.1,361.5 M207.7,468.5c-2.1,1-4.6,0.1-5.6-2
		c-1-2.1-0.1-4.6,2-5.6c2.1-1,4.6-0.1,5.6,2C210.7,465,209.8,467.5,207.7,468.5 M201.1,361.4c-1.2,2.1-3.9,2.7-5.9,1.5
		c-2.1-1.2-2.7-3.9-1.5-5.9c1.2-2.1,3.9-2.7,5.9-1.5C201.6,356.7,202.3,359.3,201.1,361.4 M197.7,476.5c-2,0.9-4.4,0.1-5.3-1.9
		c-0.9-2-0.1-4.4,1.9-5.3c2-0.9,4.4-0.1,5.3,1.9C200.6,473.2,199.7,475.6,197.7,476.5 M188,484c-1.9,0.9-4.1,0.1-5-1.8
		c-0.9-1.9-0.1-4.1,1.8-5c1.9-0.9,4.1-0.1,5,1.8C190.7,480.9,189.9,483.1,188,484 M224.7,366.7c1.4-2.3,4.3-3.1,6.6-1.7
		c2.3,1.4,3.1,4.3,1.7,6.6c-1.4,2.3-4.3,3.1-6.6,1.7C224.1,371.9,223.4,369,224.7,366.7 M240.3,372.8c1.4-2.4,4.5-3.2,7-1.8
		c2.4,1.4,3.2,4.5,1.8,7c-1.4,2.4-4.5,3.2-7,1.8C239.7,378.3,238.9,375.2,240.3,372.8 M255.6,380.2c1.5-2.5,4.8-3.4,7.3-1.9
		c2.5,1.5,3.4,4.8,1.9,7.3c-1.5,2.5-4.8,3.4-7.3,1.9C254.9,386,254.1,382.7,255.6,380.2 M270.3,389.2c1.6-2.7,5-3.6,7.7-2
		c2.7,1.6,3.6,5,2,7.7c-1.6,2.7-5,3.6-7.7,2C269.6,395.2,268.7,391.8,270.3,389.2 M275.8,269c0-2,1.6-3.6,3.6-3.6s3.6,1.6,3.6,3.6
		s-1.6,3.6-3.6,3.6S275.8,270.9,275.8,269 M273.2,254.5c0-1.8,1.5-3.3,3.3-3.3c1.8,0,3.3,1.5,3.3,3.3c0,1.8-1.5,3.3-3.3,3.3
		C274.7,257.8,273.2,256.3,273.2,254.5 M272.1,240.8c0-1.7,1.4-3,3-3s3,1.4,3,3s-1.4,3-3,3S272.1,242.4,272.1,240.8 M275.7,225.1
		c1.5,0,2.8,1.2,2.8,2.8c0,1.5-1.3,2.8-2.8,2.8c-1.5,0-2.8-1.2-2.8-2.8C272.9,226.4,274.2,225.1,275.7,225.1 M278.8,213.5
		c1.4,0,2.5,1.1,2.5,2.5s-1.1,2.5-2.5,2.5c-1.4,0-2.5-1.1-2.5-2.5S277.4,213.5,278.8,213.5 M287,284.1c0,2.1-1.7,3.8-3.8,3.8
		c-2.1,0-3.8-1.7-3.8-3.8s1.7-3.8,3.8-3.8C285.2,280.3,287,282,287,284.1 M287,247.4c1.9,0,3.4,1.5,3.4,3.4c0,1.9-1.5,3.4-3.4,3.4
		c-1.9,0-3.4-1.5-3.4-3.4C283.6,248.9,285.1,247.4,287,247.4 M293.1,261.9c0,2-1.6,3.6-3.6,3.6c-2,0-3.6-1.6-3.6-3.6
		s1.6-3.6,3.6-3.6C291.5,258.3,293.1,259.9,293.1,261.9 M296.6,273.4c0,2.1-1.7,3.8-3.8,3.8c-2.1,0-3.8-1.7-3.8-3.8
		c0-2.1,1.7-3.8,3.8-3.8C294.9,269.6,296.6,271.3,296.6,273.4 M300.7,285.5c0,0.4-0.1,0.8-0.2,1.2c-0.2,0.5-0.4,1-0.7,1.3
		c-0.7,0.9-1.8,1.5-3.1,1.5c-2.2,0-4-1.8-4-4l0-0.3c0-0.3,0.1-0.6,0.2-0.9c0.5-1.6,2-2.8,3.8-2.8
		C298.9,281.5,300.7,283.3,300.7,285.5 M305,297.9c0,2.3-1.9,4.2-4.2,4.2c-2.3,0-4.2-1.9-4.2-4.2c0-2.3,1.9-4.2,4.2-4.2
		C303.2,293.7,305,295.6,305,297.9 M298.1,370c-2.8,0-5.1-2.3-5.1-5.1s2.3-5.1,5.1-5.1c2.8,0,5.1,2.3,5.1,5.1S300.9,370,298.1,370
		 M296.6,386.7c-2.9,0-5.3-2.4-5.3-5.3c0-0.3,0-0.5,0.1-0.8c0.4-2.6,2.6-4.5,5.3-4.5c3,0,5.3,2.4,5.3,5.3c0,2-1.1,3.8-2.8,4.7
		C298.4,386.5,297.6,386.7,296.6,386.7 M287,397.6c0-3.1,2.5-5.6,5.6-5.6c3,0,5.5,2.4,5.6,5.4l0,0.2c0,2.9-2.2,5.3-5.1,5.6
		c-0.2,0-0.3,0-0.5,0C289.5,403.2,287,400.7,287,397.6 M287.3,303.8c-2.2,0-4.1-1.8-4.1-4.1s1.8-4.1,4.1-4.1s4.1,1.8,4.1,4.1
		C291.4,301.9,289.6,303.8,287.3,303.8 M291.4,320c-2.4,0-4.3-1.9-4.3-4.3s1.9-4.3,4.3-4.3s4.3,1.9,4.3,4.3
		C295.8,318.1,293.8,320,291.4,320 M302.2,348.5c0,2.7-2.2,4.8-4.8,4.8c-2.7,0-4.8-2.2-4.8-4.8c0-2.7,2.2-4.8,4.8-4.8
		C300,343.6,302.2,345.8,302.2,348.5 M295,336.6c-2.5,0-4.6-2.1-4.6-4.6c0-2.5,2-4.6,4.6-4.6c2.5,0,4.6,2,4.6,4.6
		C299.5,334.5,297.5,336.6,295,336.6 M288,417.5c-1.8,0.8-3.8,0.6-5.4-0.4c-0.9-0.6-1.6-1.3-2.1-2.4c-1.3-2.8-0.1-6.1,2.7-7.4
		c2-0.9,4.2-0.6,5.8,0.6c0.7,0.5,1.3,1.2,1.7,2.1C292,412.9,290.8,416.2,288,417.5 M283.3,436.4c-2.9-1-4.5-4.2-3.4-7.1
		c1-2.9,4.2-4.5,7.1-3.4c2.9,1,4.5,4.2,3.4,7.1C289.4,435.9,286.2,437.5,283.3,436.4 M275.2,422.9c-2.7,1.3-5.9,0.1-7.2-2.6
		c-1.3-2.7-0.1-5.9,2.6-7.2c2.7-1.3,5.9-0.1,7.2,2.6C279.1,418.4,277.9,421.6,275.2,422.9 M277.7,448.8c-2.8-1-4.3-4.1-3.3-6.9
		s4.1-4.3,6.9-3.3c2.8,1,4.3,4.1,3.3,6.9C283.6,448.3,280.5,449.8,277.7,448.8 M273.4,461.7c-2.7-0.9-4.1-3.9-3.2-6.6
		c0.9-2.7,3.9-4.1,6.6-3.2c2.7,0.9,4.1,3.9,3.2,6.6C279.1,461.2,276.1,462.6,273.4,461.7 M270.3,474.8c-2.6-0.9-4-3.8-3.1-6.4
		c0.9-2.6,3.8-4,6.4-3.1c2.6,0.9,4,3.8,3.1,6.4C275.7,474.4,272.9,475.7,270.3,474.8 M268.1,488.2c-2.5-0.9-3.8-3.6-2.9-6.1
		c0.9-2.5,3.6-3.8,6.1-2.9c2.5,0.9,3.8,3.6,2.9,6.1C273.4,487.7,270.6,489,268.1,488.2 M266.7,501.5c-2.4-0.8-3.7-3.5-2.8-5.8
		c0.8-2.4,3.5-3.7,5.8-2.8c2.4,0.8,3.7,3.5,2.8,5.9C271.7,501.1,269.1,502.4,266.7,501.5 M265.8,514.8c-2.3-0.8-3.5-3.3-2.7-5.6
		c0.8-2.3,3.3-3.5,5.6-2.7c2.3,0.8,3.5,3.3,2.7,5.6C270.6,514.4,268.1,515.6,265.8,514.8 M265.2,527.9c-2.2-0.8-3.3-3.2-2.6-5.3
		c0.8-2.2,3.2-3.3,5.3-2.6c2.2,0.8,3.3,3.2,2.6,5.3C269.7,527.5,267.4,528.7,265.2,527.9 M264.7,540.7c-2.1-0.7-3.2-3-2.4-5.1
		c0.7-2.1,3-3.2,5.1-2.4c2.1,0.7,3.2,3,2.4,5.1C269,540.3,266.8,541.4,264.7,540.7 M267.8,562.4c-0.7,1.9-2.7,2.9-4.6,2.2
		c-1.9-0.6-2.9-2.7-2.2-4.6c0.7-1.9,2.7-2.9,4.6-2.2C267.5,558.5,268.4,560.5,267.8,562.4 M264.1,552.9c-2-0.7-3-2.8-2.3-4.8
		c0.7-2,2.9-3,4.8-2.3c2,0.7,3,2.8,2.3,4.8C268.2,552.6,266.1,553.6,264.1,552.9 M309.5,310.7c0,2.4-2,4.4-4.4,4.4
		c-2.4,0-4.4-2-4.4-4.4c0-2.4,2-4.4,4.4-4.4C307.5,306.3,309.5,308.3,309.5,310.7 M313.8,323.8c0,2.5-2.1,4.6-4.6,4.6
		c-2.5,0-4.6-2.1-4.6-4.6c0-2.5,2.1-4.6,4.6-4.6C311.7,319.2,313.8,321.3,313.8,323.8 M317.7,337.2c0,2.6-2.1,4.8-4.8,4.8
		c-2.6,0-4.8-2.1-4.8-4.8c0-2.6,2.1-4.8,4.8-4.8C315.5,332.4,317.7,334.5,317.7,337.2 M321,350.7c0,2.8-2.2,5-5,5c-2.8,0-5-2.2-5-5
		c0-2.8,2.2-5,5-5C318.7,345.7,321,348,321,350.7 M323.4,364.4c0,2.9-2.3,5.2-5.2,5.2c-2.9,0-5.2-2.3-5.2-5.2s2.3-5.2,5.2-5.2
		C321.1,359.2,323.4,361.5,323.4,364.4 M319.4,383.6c-3,0-5.4-2.4-5.4-5.4c0-3,2.4-5.4,5.4-5.4c3,0,5.4,2.4,5.4,5.4
		C324.8,381.2,322.4,383.6,319.4,383.6 M324.8,392L324.8,392c0,3.1-2.5,5.6-5.6,5.6c-1.2,0-2.3-0.4-3.2-1c-1.4-1-2.4-2.7-2.4-4.6
		c0-3.1,2.5-5.6,5.6-5.6S324.8,388.9,324.8,392 M329.9,384.8c1.9-2.4,5.4-2.8,7.9-0.9c2.4,1.9,2.8,5.4,0.9,7.9
		c-1.9,2.4-5.4,2.8-7.9,0.9C328.4,390.7,328,387.2,329.9,384.8 M342.2,372.3c1.8-2.3,5.2-2.7,7.5-0.9c2.3,1.8,2.7,5.2,0.9,7.5
		c-1.8,2.3-5.2,2.7-7.5,0.9C340.7,378,340.3,374.6,342.2,372.3 M353,358.9c1.7-2.2,4.9-2.6,7.1-0.8c2.2,1.7,2.6,4.9,0.8,7.1
		c-1.7,2.2-4.9,2.6-7.1,0.8C351.6,364.3,351.2,361.1,353,358.9 M362.7,344.9c1.7-2.1,4.7-2.4,6.8-0.8c2.1,1.7,2.4,4.7,0.8,6.8
		c-1.7,2.1-4.7,2.4-6.8,0.8C361.3,350,361,347,362.7,344.9 M371.4,330.7c1.6-2,4.5-2.3,6.4-0.7c2,1.6,2.3,4.5,0.7,6.4
		c-1.6,2-4.5,2.3-6.4,0.7C370.1,335.6,369.8,332.7,371.4,330.7 M409.1,267.2c1.1-1.4,3.2-1.7,4.6-0.5c1.4,1.1,1.7,3.2,0.5,4.6
		c-1.1,1.4-3.2,1.7-4.6,0.5C408.2,270.7,408,268.6,409.1,267.2 M397.1,623.1c1.1-0.5,2.4,0,2.9,1.1c0.5,1.1,0,2.4-1.1,2.9
		c-1.1,0.5-2.4,0-2.9-1.1C395.5,624.8,396,623.6,397.1,623.1 M385.5,643.9c-0.9,0.4-1.9,0-2.3-0.9c-0.4-0.9,0-1.9,0.9-2.3
		c0.9-0.4,1.9,0,2.3,0.9C386.8,642.5,386.4,643.5,385.5,643.9 M242.9,613.4c-0.4,1.2-1.8,1.9-3,1.5c-1.2-0.4-1.9-1.8-1.5-3
		c0.4-1.2,1.8-1.9,3-1.5C242.7,610.8,243.4,612.2,242.9,613.4 M238.5,623.7c-0.4,1.1-1.5,1.6-2.6,1.2c-1.1-0.4-1.6-1.5-1.2-2.6
		c0.4-1.1,1.5-1.6,2.6-1.2C238.3,621.5,238.8,622.6,238.5,623.7 M233.8,617.4c-0.4,1.1-1.6,1.7-2.8,1.3c-1.1-0.4-1.7-1.6-1.3-2.8
		c0.4-1.1,1.6-1.7,2.8-1.3C233.6,615,234.2,616.3,233.8,617.4 M223.4,625.2c-0.3,0.9-1.3,1.4-2.3,1.1c-0.9-0.3-1.4-1.3-1.1-2.3
		c0.3-0.9,1.3-1.4,2.3-1.1C223.2,623.3,223.7,624.3,223.4,625.2 M219.1,618.5c0.4-1,1.5-1.6,2.5-1.2c1,0.4,1.6,1.5,1.2,2.5
		c-0.4,1-1.5,1.6-2.5,1.2C219.3,620.6,218.7,619.5,219.1,618.5 M209.6,620.4c-0.3,0.9-1.3,1.4-2.3,1.1c-0.9-0.3-1.4-1.3-1.1-2.3
		c0.3-0.9,1.3-1.4,2.3-1.1C209.4,618.5,209.9,619.5,209.6,620.4 M178.5,490.9c-1.8,0.8-3.9,0.1-4.8-1.7c-0.8-1.8-0.1-3.9,1.7-4.8
		c1.8-0.8,3.9-0.1,4.8,1.7C181,488,180.3,490.1,178.5,490.9 M169.2,497c-1.7,0.8-3.7,0.1-4.5-1.6c-0.8-1.7-0.1-3.7,1.6-4.5
		c1.7-0.8,3.7-0.1,4.5,1.6C171.6,494.2,170.9,496.2,169.2,497 M160,502.1c-1.6,0.7-3.5,0.1-4.2-1.5c-0.7-1.6-0.1-3.5,1.5-4.2
		c1.6-0.7,3.5-0.1,4.2,1.5S161.6,501.3,160,502.1 M151,505.9c-1.5,0.7-3.3,0.1-4-1.4c-0.7-1.5-0.1-3.3,1.4-4c1.5-0.7,3.3-0.1,4,1.4
		C153.2,503.4,152.5,505.2,151,505.9 M142.1,508.2c-1.4,0.7-3,0-3.7-1.3c-0.7-1.4-0.1-3,1.3-3.7c1.4-0.6,3,0,3.7,1.3
		C144.1,505.9,143.5,507.6,142.1,508.2 M133.3,508.9c-1.3,0.6-2.8,0-3.4-1.2c-0.6-1.3,0-2.8,1.2-3.4c1.3-0.6,2.8,0,3.4,1.2
		C135.2,506.8,134.6,508.3,133.3,508.9 M124.5,507.8c-1.2,0.6-2.6,0-3.2-1.1c-0.6-1.2,0-2.6,1.1-3.2c1.2-0.6,2.6,0,3.2,1.1
		C126.2,505.8,125.7,507.3,124.5,507.8 M115.7,504.7c-1.1,0.5-2.4,0-2.9-1c-0.5-1.1,0-2.4,1.1-2.9c1.1-0.5,2.4,0,2.9,1
		C117.3,502.8,116.8,504.1,115.7,504.7 M106.9,499.2c-1,0.5-2.2,0-2.6-1c-0.5-1,0-2.2,1-2.6c1-0.5,2.2,0,2.6,1
		C108.3,497.6,107.9,498.8,106.9,499.2 M98,491.4c-0.9,0.4-1.9,0-2.4-0.9c-0.4-0.9,0-1.9,0.9-2.4c0.9-0.4,1.9,0,2.4,0.9
		C99.3,489.9,98.9,491,98,491.4 M185.7,357c-1.1,1.9-3.6,2.6-5.6,1.4c-1.9-1.1-2.6-3.6-1.4-5.6c1.1-1.9,3.6-2.6,5.6-1.4
		C186.2,352.6,186.9,355.1,185.7,357 M171.1,352.7c-1.1,1.8-3.4,2.4-5.2,1.4c-1.8-1.1-2.4-3.4-1.4-5.2c1.1-1.8,3.4-2.4,5.2-1.4
		C171.6,348.6,172.2,350.9,171.1,352.7 M157.6,348.2c-1,1.7-3.2,2.3-4.9,1.3c-1.7-1-2.3-3.2-1.3-4.9c1-1.7,3.2-2.3,4.9-1.3
		C158,344.3,158.6,346.5,157.6,348.2 M145.3,343.2c-0.9,1.6-2.9,2.1-4.5,1.2c-1.6-0.9-2.1-3-1.2-4.5c0.9-1.6,2.9-2.1,4.5-1.2
		C145.7,339.6,146.2,341.6,145.3,343.2 M134.6,337.3c-0.9,1.5-2.7,1.9-4.2,1.1c-1.4-0.9-1.9-2.7-1.1-4.2c0.9-1.5,2.7-1.9,4.2-1.1
		C135,334,135.4,335.8,134.6,337.3 M125.7,330.3c-0.8,1.3-2.5,1.8-3.8,1c-1.3-0.8-1.8-2.5-1-3.8c0.8-1.3,2.5-1.8,3.8-1
		S126.5,328.9,125.7,330.3 M119,321.8c-0.7,1.2-2.3,1.6-3.5,0.9c-1.2-0.7-1.6-2.3-0.9-3.5c0.7-1.2,2.3-1.6,3.5-0.9
		C119.3,319.1,119.7,320.6,119,321.8 M111.5,312.5c-1.1-0.6-1.4-2-0.8-3.1c0.6-1.1,2-1.4,3.1-0.8c1.1,0.6,1.4,2,0.8,3.1
		C114,312.7,112.6,313.1,111.5,312.5 M109.5,297.4c0.6-1,1.8-1.3,2.8-0.7c1,0.6,1.3,1.8,0.7,2.8c-0.6,1-1.8,1.3-2.8,0.7
		C109.2,299.6,108.9,298.3,109.5,297.4 M284.9,203c1.3,0,2.3,1,2.3,2.3c0,1.3-1,2.3-2.3,2.3s-2.3-1-2.3-2.3
		C282.6,204,283.6,203,284.9,203 M294.5,193.7c1.1,0,2,0.9,2,2c0,1.1-0.9,2-2,2s-2-0.9-2-2C292.4,194.6,293.3,193.7,294.5,193.7
		 M301.2,196.2c1.2,0,2.2,1,2.2,2.2c0,1.2-1,2.2-2.2,2.2c-1.2,0-2.2-1-2.2-2.2C299,197.2,300,196.2,301.2,196.2 M308.1,185.8
		c1,0,1.8,0.8,1.8,1.8c0,1-0.8,1.8-1.8,1.8c-1,0-1.8-0.8-1.8-1.8C306.3,186.6,307.1,185.8,308.1,185.8 M312.6,192.5c0,1.1-0.9,2-2,2
		s-2-0.9-2-2c0-1.1,0.9-2,2-2S312.6,191.4,312.6,192.5 M322.7,185.8c1,0,1.8,0.8,1.8,1.8c0,1-0.8,1.8-1.8,1.8c-1,0-1.8-0.8-1.8-1.8
		C320.9,186.6,321.7,185.8,322.7,185.8 M425.9,251.5c1-1.2,2.7-1.4,3.9-0.5c1.2,1,1.4,2.7,0.5,3.9s-2.7,1.4-3.9,0.5
		C425.2,254.5,425,252.7,425.9,251.5 M435.6,247.1c0.9-1.1,2.5-1.3,3.6-0.4c1.1,0.9,1.3,2.5,0.4,3.6c-0.9,1.1-2.5,1.3-3.6,0.4
		C434.9,249.8,434.7,248.2,435.6,247.1 M446.5,245.3c0.8-1,2.2-1.2,3.2-0.4c1,0.8,1.2,2.2,0.4,3.2c-0.8,1-2.2,1.2-3.2,0.4
		C445.9,247.7,445.7,246.3,446.5,245.3 M458.8,246.6c0.7-0.9,2-1,2.8-0.3c0.9,0.7,1,2,0.3,2.8c-0.7,0.9-2,1-2.8,0.3
		C458.3,248.8,458.1,247.5,458.8,246.6 M472.8,251.2c0.6-0.8,1.7-0.9,2.5-0.3c0.8,0.6,0.9,1.7,0.3,2.5c-0.6,0.8-1.7,0.9-2.5,0.3
		C472.3,253.1,472.2,252,472.8,251.2 M598,451c-0.4,0.5-0.9,1.3-1.7,2.2c-0.4,0.5-0.8,1-1.3,1.6c-0.5,0.6-1.1,1.1-1.7,1.8
		c-0.6,0.6-1.4,1.2-2.1,1.9c-0.4,0.3-0.8,0.6-1.2,0.9c-0.4,0.3-0.8,0.7-1.3,0.9c-1.8,1.3-4.1,2.3-6.6,2.9c-2.5,0.6-5.3,0.6-8.1-0.2
		c-1.4-0.3-2.8-1-4.1-1.7c-1.3-0.8-2.7-1.7-3.9-2.7c-2.5-2.1-4.9-4.8-7-7.9c-4.2-6.1-7.4-13.8-9.8-22c-0.3-1.1-0.6-2.2-0.9-3.2
		c-0.3-1.2-0.7-2.3-1-3.5c-0.8-2.3-1.5-4.7-2.5-7.1c-2-4.7-4.5-9.5-7.9-14l-0.6-0.8l-0.7-0.8l-1.4-1.6c-1-1.1-2.1-2.1-3.1-3.1
		c-1.1-0.9-2.2-2-3.5-2.8l-1.9-1.3l-2-1.2c-5.3-3.1-11.2-5-17.1-6c-5.9-1-11.8-1.2-17.5-0.9c-5.7,0.2-11.3,0.9-16.8,1.8
		c-10.9,1.7-21.4,4.1-31.5,6.4c-0.8,0.2-1.6,0.4-2.4,0.5c-0.2-0.2-0.4-0.4-0.6-0.6c-1.1-1.1-2.2-2.4-3.3-3.7c-1-1.4-2.1-2.8-3.1-4.3
		c-2-3-3.9-6.3-5.6-9.8c-1.7-3.5-3.3-7.2-4.6-10.9c-2.7-7.5-4.9-15.3-6.9-22.6c-2-7.3-3.8-14.2-5.6-20c-0.6-1.9-1.1-3.6-1.7-5.2
		c4-8.9,8-17.7,12.4-26.1c4.7-8.8,9.9-17,16.3-23.1c3.2-3,6.6-5.5,10.4-7l1.4-0.6l1.4-0.5c1-0.4,2-0.5,3-0.8c1-0.2,2-0.4,3.1-0.5
		l1.6-0.1l0.8-0.1l0.8,0c4.2-0.1,8.5,0.6,12.8,1.7c2.1,0.5,4.2,1.2,6.3,1.9c1,0.4,2,0.8,3.1,1.2c1.1,0.4,2.2,0.8,3.2,1.3
		c4.4,1.7,8.8,3.1,13.2,4.1c4.3,1,8.6,1.7,12.8,1.9c4.2,0.2,8.2-0.1,12-1c1.9-0.4,3.7-1.1,5.4-1.8c1.7-0.8,3.3-1.7,4.7-2.8
		c1.4-1,2.6-2.3,3.6-3.6c0.5-0.7,0.9-1.3,1.3-2c0.4-0.7,0.8-1.4,1-2c1.2-2.7,1.7-5.4,1.8-7.8c0.1-0.6,0.1-1.2,0.1-1.7
		c0-0.6,0-1.1,0-1.6c-0.1-1-0.1-2-0.3-2.9c-0.1-0.9-0.3-1.7-0.4-2.5c-0.2-0.7-0.3-1.4-0.5-2c-0.3-1.2-0.6-2.1-0.7-2.7
		c-0.2-0.6-0.3-0.9-0.3-0.9s0,0.3,0.1,1c0.1,0.6,0.3,1.6,0.4,2.8c0.1,0.6,0.1,1.3,0.2,2c0,0.8,0.1,1.6,0.1,2.5
		c0,0.9-0.1,1.8-0.1,2.8c0,0.5-0.1,1-0.2,1.5c-0.1,0.5-0.1,1.1-0.3,1.6c-0.4,2.2-1.1,4.5-2.5,6.8c-1.3,2.2-3.2,4.2-5.7,5.7
		c-1.2,0.8-2.6,1.3-4.1,1.8c-1.5,0.4-3,0.8-4.7,0.9c-3.3,0.3-6.8,0.2-10.5-0.4c-7.3-1.2-15.1-4.2-22.6-8.2c-1-0.5-2-1.1-3-1.6
		c-1.1-0.6-2.1-1.1-3.2-1.7c-2.2-1.1-4.5-2.2-6.9-3.1c-4.8-1.9-10-3.4-15.6-4l-1-0.1l-1.1-0.1l-2.2-0.1c-1.4,0-2.9,0-4.4,0.1
		c-1.5,0.2-3,0.3-4.4,0.6l-2.2,0.4l-2.2,0.6c-5.9,1.6-11.3,4.6-16.2,8.1c-2.5,1.8-4.8,3.8-7,5.9c1.1-0.7,2.5-0.7,3.6,0.1
		c1.3,1,1.5,3,0.5,4.3c-1,1.3-3,1.5-4.3,0.5c-1.3-1-1.5-2.8-0.6-4.2c-1.8,1.7-3.5,3.5-5.1,5.4c-3.8,4.3-7.2,8.8-10.4,13.3
		c-6.3,9.1-11.9,18.3-17.3,27.2c-0.8,1.3-1.6,2.6-2.3,3.9c-0.2,0.1-0.5,0.2-0.7,0.3c-0.6,0.3-1.2,0.5-1.8,0.8
		c-1.2,0.6-2.6,1-3.9,1.4c-0.3,0.1-0.7,0.2-1,0.4c-0.3,0.1-0.7,0.2-1.1,0.3c-0.7,0.2-1.4,0.4-2.2,0.6c-0.7,0.2-1.5,0.3-2.2,0.4
		c-0.8,0.1-1.5,0.3-2.3,0.4c-0.8,0.1-1.6,0.1-2.4,0.3c-0.8,0.1-1.6,0.1-2.4,0.1c-3.2,0.1-6.6-0.1-10-0.8c-3.4-0.7-6.8-1.8-10.2-3.2
		c-6.7-2.9-13-6.8-19-10.4c-3-1.8-5.9-3.6-8.7-5.2c-2.8-1.6-5.5-3.1-8-4.3c-0.3-0.1-0.5-0.2-0.8-0.4c-0.5-1.4-1.1-2.8-1.6-4.2
		c-3.8-9.7-7.7-19.3-10.9-28.7c-1.7-5.2-3.2-10.3-4.2-15.3c-0.1,1.6-1.5,2.9-3.2,2.9c-1.8,0-3.2-1.4-3.2-3.2c0-1.8,1.4-3.2,3.2-3.2
		c1.2,0,2.3,0.7,2.8,1.8c-0.4-2.2-0.7-4.4-0.9-6.5c-0.5,0.6-1.3,1-2.2,1c-1.6,0-3-1.3-3-3c0-1.6,1.3-3,3-3c0.8,0,1.5,0.3,2.1,0.8
		c0-1.5,0.1-3.1,0.3-4.5c-0.4,0.2-0.7,0.3-1.1,0.3c-1.5,0-2.8-1.2-2.8-2.8c0-1.5,1.2-2.8,2.8-2.8c0.8,0,1.5,0.3,2,0.9
		c0.3-0.9,0.6-1.8,0.9-2.7c0.2-0.4,0.4-0.9,0.5-1.3c-0.2,0-0.4,0.1-0.6,0.1c-1.4,0-2.6-1.2-2.6-2.6s1.2-2.6,2.6-2.6
		c1.1,0,2.1,0.7,2.4,1.7c1.1-1.7,2.4-3.3,3.9-4.9c-0.4,0.3-0.9,0.5-1.4,0.5c-1.3,0-2.4-1.1-2.4-2.4c0-1.3,1.1-2.4,2.4-2.4
		s2.4,1.1,2.4,2.4c0,0.5-0.2,1-0.4,1.3c2.9-2.9,6.3-5.4,10-7.5c1.9-1.1,3.8-2.1,5.8-3.1c1-0.5,2-0.9,3-1.4c1.1-0.5,2.1-0.9,3.2-1.4
		c8.7-3.9,16.5-8.6,22.7-14.4c3.1-2.9,5.8-6,7.8-9.3c2.1-3.3,3.4-6.9,3.9-10.5c0.4-3.5-0.1-6.9-1.2-9.7c-1.1-2.8-2.7-5-4.3-6.8
		c-1.6-1.8-3.2-3.1-4.6-4.2c-1.4-1.1-2.7-1.9-3.8-2.6c-1.1-0.6-1.9-1.1-2.5-1.4c-0.6-0.3-0.9-0.5-0.9-0.5s0.3,0.2,0.8,0.6
		c0.5,0.4,1.3,0.9,2.2,1.7c1,0.8,2.1,1.8,3.3,3c1.2,1.2,2.6,2.8,3.8,4.6c1.2,1.8,2.4,4,3,6.5c0.6,2.5,0.6,5.2-0.1,8
		c-0.7,2.8-2.2,5.5-4.3,8c-2.1,2.5-4.7,4.9-7.8,7c-6.1,4.2-13.6,7.5-21.8,9.9c-1.1,0.3-2.1,0.6-3.2,0.9c-1.2,0.3-2.3,0.7-3.5,1
		c-2.3,0.8-4.7,1.6-7.1,2.6c-4.8,2-9.6,4.5-14.1,8c-4.6,3.5-8.8,8-11.9,13.5c-3.1,5.5-5,11.6-5.8,17.7c-0.9,6.1-0.8,12-0.4,17.8
		c0.4,5.8,1.3,11.4,2.3,16.8c1.9,10.3,4.4,20.1,6.7,29.7c-0.1,0.2-0.2,0.4-0.4,0.6c-0.5,0.7-1.2,1.8-2.1,3.1c-0.5,0.7-1,1.4-1.6,2.2
		c-0.3,0.4-0.6,0.8-0.9,1.2c-0.3,0.4-0.7,0.8-1,1.2c-1.3,1.7-3,3.6-4.9,5.4c-0.5,0.5-1,0.9-1.5,1.4c-0.5,0.5-1.1,0.9-1.6,1.3
		c-1.1,1-2.3,1.7-3.5,2.6c-2.5,1.6-5.2,3.2-8.3,4.5c-3,1.3-6.2,2.5-9.6,3.6c-3.4,1-7,1.9-10.6,2.7c-7.2,1.6-14.6,3.1-21.3,5.5
		c-0.8,0.3-1.7,0.6-2.5,0.9c-0.8,0.3-1.6,0.6-2.4,1c-1.5,0.7-3.1,1.4-4.5,2.2c-0.7,0.4-1.4,0.8-2.1,1.1c-0.7,0.4-1.3,0.8-2,1.2
		c-1.3,0.8-2.5,1.7-3.7,2.5c-1.2,0.8-2.2,1.7-3.2,2.5c-1,0.8-1.9,1.7-2.7,2.4c-0.4,0.4-0.8,0.8-1.2,1.1c-0.4,0.4-0.7,0.8-1.1,1.1
		c-0.7,0.7-1.3,1.4-1.8,2c-0.4,0.5-0.8,0.9-1.1,1.3c-6.8-1.3-13.6-2.7-20.1-4.4c-9.6-2.5-18.9-5.6-26.3-10.3
		c-3.6-2.4-6.9-5.1-9.3-8.4l-0.9-1.2l-0.8-1.3c-0.6-0.8-1-1.8-1.5-2.7c-0.4-0.9-0.8-1.9-1.2-2.9l-0.5-1.5l-0.2-0.7l-0.2-0.8
		c-1.1-4.1-1.4-8.4-1.4-12.8c0-2.2,0.2-4.4,0.4-6.5c0.1-1.1,0.3-2.2,0.4-3.2c0.2-1.1,0.3-2.3,0.5-3.4c0.6-4.7,0.9-9.3,0.9-13.8
		c0-4.5-0.4-8.8-1.2-12.9c-0.8-4.1-2.1-8-3.8-11.5c-0.9-1.7-1.9-3.3-3-4.8c-1.2-1.4-2.4-2.8-3.8-3.9c-2.7-2.2-5.9-3.5-8.8-4
		c-2.9-0.5-5.6-0.4-8,0.1c-0.6,0.1-1.1,0.2-1.7,0.4c-0.5,0.1-1.1,0.3-1.6,0.4c-1,0.3-1.9,0.6-2.8,1c-0.8,0.4-1.6,0.7-2.3,1
		c-0.7,0.3-1.3,0.6-1.9,0.9c-1.1,0.5-1.9,1.1-2.5,1.4c-0.6,0.3-0.8,0.5-0.8,0.5s0.3-0.1,0.9-0.4c0.6-0.2,1.4-0.6,2.6-1
		c0.6-0.2,1.2-0.4,1.9-0.7c0.7-0.2,1.5-0.4,2.4-0.7c0.9-0.2,1.8-0.4,2.8-0.6c0.5-0.1,1-0.1,1.5-0.2c0.5-0.1,1.1-0.1,1.6-0.1
		c2.2-0.2,4.7,0,7.1,0.8c2.5,0.7,4.9,2.1,6.9,4.2c1,1,1.9,2.2,2.7,3.5c0.8,1.3,1.5,2.8,2,4.3c1.1,3.1,1.8,6.6,2.1,10.3
		c0.5,6.9-0.4,14.5-2.2,22.1c0.5-0.2,1.1-0.2,1.6,0.1c0.8,0.5,1.1,1.6,0.6,2.4c-0.5,0.8-1.6,1.1-2.4,0.6c-0.2-0.1-0.4-0.3-0.5-0.4
		c-0.2,0.8-0.4,1.5-0.6,2.3c-0.3,1.2-0.6,2.3-0.9,3.5c-0.5,2.4-1,4.8-1.4,7.4c-0.7,5.1-0.9,10.5-0.2,16.1l0.1,1.1l0.2,1.1l0.4,2.1
		c0.3,1.4,0.7,2.8,1.2,4.2c0.5,1.4,1,2.8,1.6,4.2l0.9,2.1l1.1,2c3,5.3,7.2,9.9,11.7,13.8c4.6,3.9,9.6,6.9,14.6,9.6
		c5.1,2.7,10.2,4.9,15.4,6.9c3.2,1.3,6.4,2.4,9.6,3.5c0.1,0.1,0.3,0.2,0.4,0.3c0.5,0.4,1.1,0.8,1.7,1.3c0.6,0.5,1.3,1.1,2.1,1.7
		c0.7,0.6,1.5,1.3,2.3,2.1c1.6,1.5,3.4,3.4,5.1,5.6c3.4,4.3,6.4,10,8.1,16.6c0.9,3.3,1.4,6.8,1.7,10.3c0.3,3.6,0.2,7.2,0,10.9
		c-0.2,3.6-0.7,7.3-1.4,10.8c-0.6,3.6-1.4,7.1-2,10.5c-0.6,3.4-1.2,6.7-1.7,9.9c-0.5,3.2-0.9,6.2-1.1,9.1c-0.3,2.9-0.3,5.5-0.1,7.9
		c0.1,1.2,0.3,2.3,0.5,3.3l0.1,0.3c-7,5.8-13.9,11.4-21,16.6c-8.1,5.8-16.4,10.9-24.8,13.5c-4.2,1.3-8.3,2-12.4,1.7l-1.5-0.1
		l-1.5-0.2c-1-0.1-2-0.4-3-0.6c-1-0.3-2-0.6-2.9-0.9L112,495l-0.7-0.3l-0.7-0.4c-3.8-1.8-7.4-4.3-10.7-7.1c-1.7-1.4-3.2-3-4.8-4.5
		c-0.7-0.8-1.5-1.6-2.2-2.4c-0.8-0.9-1.6-1.7-2.3-2.6c-3.2-3.5-6.6-6.7-10-9.5c-3.4-2.8-7-5.3-10.7-7.3c-3.7-2-7.4-3.5-11.2-4.4
		c-1.9-0.5-3.8-0.7-5.6-0.8c-1.9,0-3.7,0-5.4,0.4c-3.5,0.7-6.5,2.2-8.7,4.2c-2.3,1.9-3.9,4.1-5,6.2c-0.3,0.5-0.6,1-0.8,1.5
		c-0.2,0.5-0.5,1-0.7,1.5c-0.4,1-0.8,1.9-1,2.7c-0.3,0.9-0.5,1.7-0.7,2.4c-0.2,0.7-0.3,1.4-0.5,2c-0.3,1.2-0.4,2.1-0.5,2.8
		c-0.1,0.6-0.2,1-0.2,1s0.1-0.3,0.3-0.9c0.2-0.6,0.4-1.5,0.9-2.7c0.2-0.6,0.5-1.2,0.7-1.9c0.3-0.7,0.6-1.4,1-2.2
		c0.4-0.8,0.9-1.6,1.3-2.5c0.3-0.4,0.5-0.9,0.8-1.3c0.3-0.4,0.6-0.9,0.9-1.3c1.3-1.8,3-3.6,5.2-5c2.1-1.4,4.8-2.4,7.7-2.6
		c1.4-0.2,2.9,0,4.5,0.2c1.5,0.3,3.1,0.7,4.6,1.2c3.1,1.1,6.2,2.9,9.2,5c6,4.3,11.7,10.4,16.6,17.4c0.6,0.9,1.3,1.8,1.9,2.8
		c0.7,1,1.4,2,2.1,3c1.5,1.9,3.1,3.9,4.8,5.8c3.4,3.8,7.4,7.4,12.2,10.5l0.9,0.6l0.9,0.5l1.9,1c1.3,0.7,2.6,1.3,4,1.8
		c1.4,0.5,2.8,1.1,4.2,1.4l2.2,0.6l2.2,0.4c6,1.2,12.2,0.9,18.1-0.1c5.9-1,11.5-2.9,16.8-5c5.3-2.2,10.3-4.7,15.2-7.3
		c8.5-4.6,16.4-9.7,24.1-14.6l0.3,0c0.6,0,1.2,0.1,1.9,0.1c0.6,0,1.3,0.1,1.9,0.2s1.3,0.2,2,0.3c2.7,0.5,5.7,1.3,8.6,2.4
		c3,1.1,6,2.6,9,4.3c1.5,0.9,3,1.9,4.4,2.9c1.4,1.1,2.9,2.1,4.2,3.3c1.4,1.1,2.7,2.4,4,3.7c1.3,1.3,2.5,2.7,3.7,4.1
		c1.2,1.4,2.3,2.9,3.4,4.4c0.5,0.8,1,1.5,1.5,2.3l0.7,1.1l0.7,1.2c0.5,0.8,0.9,1.6,1.4,2.3c0.4,0.8,0.8,1.6,1.2,2.4
		c0.9,1.5,1.6,3.1,2.3,4.7c0.8,1.5,1.4,3.1,2.1,4.6c0.7,1.5,1.3,3,1.9,4.5c1.2,3,2.3,5.8,3.2,8.4c0.9,2.6,1.7,5.1,2.4,7.3
		c0.1,0.2,0.1,0.4,0.2,0.6c-0.2,6.2-0.6,12.3-1.1,18.3c-1,9.9-2.6,19.4-6.1,27.3c-3.4,7.9-8.9,13.7-16.5,17c-3.8,1.6-8,2.7-12.3,3.3
		c-2.1,0.3-4.3,0.5-6.5,0.6c-1.1,0-2.2,0.1-3.3,0.1c-1.2,0-2.3,0-3.5,0.1c-4.8,0.1-9.4,0.5-13.8,1.2c-4.4,0.7-8.7,1.8-12.6,3.2
		c-4,1.4-7.6,3.3-10.8,5.5c-1.6,1.1-3,2.4-4.4,3.8c-1.3,1.4-2.4,2.8-3.3,4.4c-0.9,1.5-1.5,3.2-2,4.7c-0.2,0.8-0.4,1.6-0.5,2.4
		c-0.1,0.8-0.2,1.6-0.2,2.3c-0.1,3,0.5,5.7,1.3,7.9c0.2,0.6,0.4,1.1,0.6,1.6c0.2,0.5,0.4,1,0.6,1.5c0.5,0.9,0.9,1.8,1.4,2.6
		c0.5,0.8,0.9,1.5,1.3,2.1c0.4,0.6,0.8,1.2,1.2,1.7c0.7,1,1.3,1.7,1.7,2.2c0.4,0.5,0.6,0.8,0.6,0.8s-0.2-0.3-0.5-0.8
		c-0.3-0.6-0.8-1.3-1.4-2.4c-0.3-0.5-0.6-1.2-0.9-1.8c-0.3-0.7-0.6-1.4-1-2.2c-0.4-0.8-0.6-1.7-1-2.7c-0.2-0.5-0.3-1-0.4-1.5
		c-0.1-0.5-0.3-1-0.4-1.6c-0.5-2.2-0.6-4.6-0.2-7.1c0.4-2.5,1.4-5.1,3.2-7.3c0.8-1.1,1.9-2.2,3.1-3.1c1.2-0.9,2.5-1.8,4-2.6
		c2.9-1.5,6.2-2.7,9.8-3.4c7.2-1.5,15.5-1.7,23.9-0.7c1.1,0.1,2.2,0.3,3.3,0.4c1.2,0.1,2.4,0.3,3.6,0.4c2.5,0.2,5,0.4,7.6,0.3
		c5.2,0,10.6-0.5,16.1-2.1l1-0.3l1-0.3l2.1-0.7c1.4-0.5,2.7-1.1,4.1-1.8c1.3-0.7,2.7-1.4,4-2.2l1.9-1.2l1.9-1.4
		c5-3.8,9-8.7,12.2-13.8c0.3-0.5,0.7-1.1,1-1.7c-0.7,0.8-1.9,1.1-2.9,0.7c-1.5-0.5-2.2-2.1-1.7-3.6c0.5-1.5,2.1-2.2,3.6-1.7
		c1.4,0.5,2.1,2,1.8,3.4c2.4-4.3,4.3-8.8,5.9-13.2c2-5.4,3.5-10.9,4.8-16.3c2-8.5,3.5-16.9,4.9-25c0.1-0.1,0.2-0.3,0.3-0.4
		c0.4-0.5,0.9-1.1,1.4-1.6c0.5-0.5,0.9-1.1,1.5-1.6c2-2.2,4.5-4.2,7.1-6.1c2.6-1.9,5.6-3.4,8.7-4.7c3.1-1.3,6.4-2.2,9.8-2.8
		c1.7-0.3,3.4-0.5,5.1-0.6c0.8,0,1.7,0,2.5,0c0.8,0,1.7,0.1,2.5,0.1c3.3,0.2,6.6,0.7,9.6,1.4c0.4,0.1,0.8,0.2,1.2,0.2
		c0.4,0.1,0.8,0.2,1.1,0.3c0.7,0.2,1.5,0.4,2.2,0.6c0.7,0.2,1.4,0.5,2.2,0.7c0.4,0.1,0.7,0.2,1.1,0.3c0.3,0.1,0.7,0.3,1,0.4
		c0.7,0.3,1.4,0.5,2,0.8c0.3,0.1,0.6,0.3,0.9,0.4c4.8,6.8,9.8,13.6,14.8,20.4c6.1,8.3,12.2,16.6,17.6,25c5.3,8.4,9.9,17,12.1,25.5
		c1,4.2,1.5,8.4,1,12.5l-0.2,1.5l-0.3,1.5c-0.2,1-0.5,2-0.8,3c-0.3,1-0.7,1.9-1.1,2.9l-0.7,1.4l-0.3,0.7l-0.4,0.7
		c-2,3.7-4.7,7.1-7.8,10.3c-1.5,1.6-3.1,3-4.8,4.5c-0.8,0.7-1.7,1.4-2.5,2.1c-0.9,0.7-1.8,1.5-2.7,2.2c-3.7,3-7.1,6.2-10.1,9.4
		c-3,3.3-5.7,6.7-7.9,10.2c-2.2,3.5-4,7.2-5.1,11c-0.6,1.9-0.9,3.7-1.1,5.6c-0.1,1.9-0.2,3.7,0.1,5.4c0.5,3.5,1.9,6.6,3.7,9
		c1.8,2.4,3.9,4.1,5.9,5.4c0.5,0.3,1,0.6,1.5,0.9c0.5,0.3,1,0.5,1.4,0.8c1,0.4,1.8,0.9,2.7,1.2c0.8,0.3,1.6,0.6,2.3,0.9
		c0.7,0.2,1.4,0.4,2,0.6c1.2,0.4,2.1,0.5,2.7,0.7c0.6,0.2,0.9,0.2,0.9,0.2s-0.3-0.1-0.9-0.3c-0.6-0.2-1.5-0.5-2.6-1
		c-0.6-0.2-1.2-0.5-1.9-0.8c-0.7-0.3-1.4-0.7-2.2-1.1c-0.8-0.4-1.6-1-2.4-1.5c-0.4-0.3-0.8-0.6-1.3-0.9c-0.4-0.3-0.9-0.6-1.3-1
		c-1.7-1.4-3.4-3.2-4.7-5.5c-1.3-2.2-2.1-4.9-2.1-7.8c-0.1-1.4,0.2-2.9,0.4-4.4c0.4-1.5,0.8-3,1.5-4.5c1.3-3,3.2-6,5.6-8.9
		c4.7-5.7,11.1-11,18.3-15.6c0.9-0.6,1.9-1.2,2.9-1.8c1-0.6,2-1.3,3.1-2c2-1.4,4.1-2.8,6.1-4.5c4-3.2,7.9-7,11.2-11.6l0.6-0.9
		l0.6-0.9l1.2-1.8c0.7-1.2,1.4-2.6,2.1-3.9c0.6-1.4,1.2-2.7,1.7-4.1l0.7-2.2l0.6-2.2c0.3-1,0.5-2.1,0.6-3.2
		c-0.2,0.4-0.6,0.7-1.1,0.9c-1.2,0.5-2.6,0-3.1-1.2c-0.5-1.2,0-2.6,1.2-3.1c1.2-0.5,2.6,0,3.1,1.2c0.1,0.1,0.1,0.3,0.1,0.4
		c0.2-2,0.4-4,0.4-6c-0.2,0.1-0.3,0.2-0.5,0.3c-1.3,0.6-2.8,0-3.4-1.3c-0.6-1.3,0-2.8,1.3-3.4c0.8-0.4,1.8-0.3,2.5,0.2
		c-0.1-1-0.1-2-0.3-3c-0.1-0.5-0.1-0.9-0.2-1.4c-0.2,0.1-0.4,0.3-0.6,0.4c-1.4,0.6-3,0-3.7-1.4c-0.6-1.4,0-3,1.4-3.7
		c0.7-0.3,1.4-0.3,2-0.1c-0.3-1.4-0.6-2.8-1-4.2c-0.3,0.3-0.6,0.6-1.1,0.8c-1.5,0.7-3.3,0-3.9-1.5c-0.7-1.5,0-3.3,1.5-3.9
		c0.7-0.3,1.4-0.3,2.1-0.1c-0.2-0.7-0.4-1.3-0.6-2c-0.3-1-0.7-2-1.1-2.9c-0.3,0.8-0.9,1.4-1.7,1.8c-1.6,0.7-3.5,0-4.2-1.6
		c-0.7-1.6,0-3.5,1.6-4.2c0.9-0.4,1.9-0.3,2.7,0.1c-1.2-3-2.5-5.9-3.9-8.7c-3.6-7.6-7.5-14.8-11.4-21.8c0.3-2,0.6-4.1,1.2-6.4
		c0.3-1.4,0.7-2.7,1.1-4.2c0.5-1.4,0.9-2.9,1.5-4.3c1.1-3,2.5-5.9,4.2-8.9c1.7-3,3.7-5.8,6-8.6c2.3-2.7,4.9-5.2,7.7-7.4
		c0.7-0.5,1.4-1.1,2.2-1.6l2.2-1.5c1.6-0.9,3.1-1.7,4.7-2.4c3.2-1.4,6.4-2.6,9.6-3.3c0.4-0.1,0.8-0.2,1.2-0.3
		c0.4-0.1,0.8-0.2,1.2-0.2c0.8-0.1,1.6-0.3,2.4-0.5c0.9-0.1,1.8-0.3,2.7-0.4c1.1,0.3,2.2,0.6,3.3,0.8c10,2.6,20,5.1,29.5,8.2
		c9.5,3.1,18.5,6.9,25.5,12.1c3.5,2.6,6.5,5.6,8.7,9l0.8,1.3l0.7,1.3c0.5,0.9,0.8,1.9,1.3,2.8c0.3,1,0.7,1.9,1,2.9l0.4,1.5l0.2,0.8
		l0.1,0.8c0.8,4.1,0.9,8.5,0.5,12.9c-0.2,2.2-0.5,4.3-0.8,6.5c-0.2,1.1-0.4,2.1-0.6,3.2c-0.2,1.1-0.5,2.3-0.7,3.4
		c-0.9,4.7-1.6,9.2-1.8,13.7c-0.3,4.5-0.2,8.8,0.3,13c0.5,4.1,1.5,8.1,3,11.7c0.7,1.8,1.7,3.5,2.7,5c1.1,1.5,2.2,3,3.5,4.1
		c2.6,2.4,5.6,3.9,8.5,4.6c2.9,0.7,5.6,0.7,8,0.5c0.6,0,1.2-0.1,1.7-0.2c0.6-0.1,1.1-0.2,1.6-0.3c1-0.3,2-0.5,2.8-0.8
		c0.9-0.3,1.7-0.5,2.4-0.8c0.7-0.3,1.3-0.6,1.9-0.8c1.1-0.5,2-0.9,2.6-1.2c0.6-0.3,0.9-0.4,0.9-0.4s-0.3,0.1-0.9,0.3
		c-0.6,0.2-1.5,0.5-2.7,0.9c-0.6,0.2-1.2,0.3-2,0.5c-0.7,0.2-1.5,0.3-2.4,0.5c-0.9,0.2-1.8,0.2-2.8,0.4c-0.5,0-1,0.1-1.5,0.1
		c-0.5,0-1.1,0.1-1.6,0c-2.2,0-4.7-0.4-7.1-1.3c-2.4-0.9-4.7-2.5-6.6-4.7c-1-1.1-1.7-2.4-2.5-3.7c-0.7-1.4-1.3-2.9-1.7-4.5
		c-0.9-3.2-1.3-6.7-1.3-10.4c0-7.4,1.6-15.6,4.3-23.7c0.4-1.1,0.7-2.1,1.1-3.2c0.4-1.1,0.8-2.3,1.1-3.5c0.7-2.4,1.4-4.8,1.9-7.3
		c1.1-5,1.7-10.4,1.3-16l-0.1-1.1l-0.1-1.1l-0.3-2.1c-0.2-1.4-0.5-2.9-0.9-4.3c-0.4-1.4-0.7-2.9-1.3-4.3l-0.8-2.1l-1-2.1
		c-2.6-5.5-6.5-10.4-10.7-14.6c-4.3-4.2-9.1-7.6-13.9-10.6c-4.9-3-9.9-5.6-14.9-8c-10-4.7-20-8.6-29.7-12.4
		c-2.9-1.2-5.9-2.3-8.7-3.4c-0.4-1-0.8-2-1.1-3.1c-0.7-2.7-0.8-5.8-0.3-8.9c0.5-3.2,1.4-6.5,2.7-9.8c1.3-3.3,3-6.6,5-9.7
		c2-3.1,4.1-6.2,6.4-9.1c2.3-2.9,4.6-5.7,6.9-8.3c4.7-5.2,9.4-9.9,13.6-13.6c1-0.9,2-1.7,2.9-2.5c3-1,6.1-1.9,9.1-2.8
		c9.6-2.7,19.1-4.7,27.9-4.3c4.4,0.2,8.5,1,12.2,2.6l1.4,0.6l1.3,0.7c0.9,0.4,1.7,1.1,2.6,1.6c0.8,0.6,1.7,1.2,2.5,1.9l1.2,1
		l0.6,0.5l0.5,0.6c3,3,5.5,6.5,7.6,10.3c1.1,1.9,2,3.9,3,5.8c0.4,1,0.9,2,1.3,3c0.4,1.1,0.9,2.1,1.3,3.2c1.8,4.4,3.9,8.5,6.2,12.3
		c2.3,3.8,4.8,7.4,7.6,10.5c2.8,3.1,5.8,5.9,9.1,8c1.6,1.1,3.3,1.9,5,2.6c1.7,0.6,3.5,1.2,5.2,1.4c3.5,0.5,6.9,0.1,9.6-1
		c2.8-1,5.1-2.5,6.8-4.1c0.5-0.4,0.9-0.8,1.3-1.2c0.4-0.4,0.8-0.8,1.2-1.1c0.7-0.8,1.4-1.5,1.9-2.2c0.5-0.7,1.1-1.4,1.5-2
		c0.4-0.6,0.8-1.2,1.1-1.7c0.7-1,1.1-1.9,1.4-2.4c0.3-0.6,0.5-0.8,0.5-0.8S598.4,450.5,598,451"/>
	<path id="path398" fill="#FFFFFF" d="M293,403.2c2.9-0.2,5.1-2.6,5.1-5.6l0-0.2c-0.1-3-2.6-5.4-5.6-5.4c-3.1,0-5.6,2.5-5.6,5.6
		c0,3.1,2.5,5.6,5.6,5.6C292.7,403.2,292.9,403.2,293,403.2"/>
	<path id="path400" fill="#FFFFFF" d="M302,381.4c0-3-2.4-5.3-5.3-5.3c-2.7,0-4.9,2-5.3,4.5c0,0.3-0.1,0.5-0.1,0.8
		c0,2.9,2.4,5.3,5.3,5.3c0.9,0,1.8-0.2,2.5-0.6C300.8,385.2,302,383.4,302,381.4"/>
	<path id="path402" fill="#FFFFFF" d="M298.1,359.9c-2.8,0-5.1,2.3-5.1,5.1s2.3,5.1,5.1,5.1c2.8,0,5.1-2.3,5.1-5.1
		S300.9,359.9,298.1,359.9"/>
	<path id="path404" fill="#FFFFFF" d="M292.5,348.5c0,2.7,2.2,4.8,4.8,4.8c2.7,0,4.8-2.2,4.8-4.8c0-2.7-2.2-4.8-4.8-4.8
		C294.7,343.6,292.5,345.8,292.5,348.5"/>
	<path id="path406" fill="#FFFFFF" d="M295,327.4c-2.5,0-4.6,2-4.6,4.6c0,2.5,2,4.6,4.6,4.6c2.5,0,4.6-2,4.6-4.6
		C299.5,329.5,297.5,327.4,295,327.4"/>
	<path id="path408" fill="#FFFFFF" d="M291.5,311.4c-2.4,0-4.3,1.9-4.3,4.3c0,2.4,1.9,4.3,4.3,4.3c2.4,0,4.3-1.9,4.3-4.3
		C295.8,313.3,293.8,311.4,291.5,311.4"/>
	<path id="path410" fill="#FFFFFF" d="M287.3,295.6c-2.2,0-4.1,1.8-4.1,4.1c0,2.2,1.8,4.1,4.1,4.1c2.2,0,4.1-1.8,4.1-4.1
		S289.6,295.6,287.3,295.6"/>
	<path id="path412" fill="#FFFFFF" d="M279.3,284.1c0,2.1,1.7,3.8,3.8,3.8s3.8-1.7,3.8-3.8c0-2.1-1.7-3.8-3.8-3.8
		S279.3,282,279.3,284.1"/>
	<path id="path414" fill="#FFFFFF" d="M275.8,269c0,2,1.6,3.6,3.6,3.6s3.6-1.6,3.6-3.6s-1.6-3.6-3.6-3.6S275.8,267,275.8,269"/>
	<path id="path416" fill="#FFFFFF" d="M279.8,254.5c0-1.8-1.5-3.3-3.3-3.3c-1.8,0-3.3,1.5-3.3,3.3c0,1.8,1.5,3.3,3.3,3.3
		C278.3,257.8,279.8,256.3,279.8,254.5"/>
	<path id="path418" fill="#FFFFFF" d="M275.1,243.8c1.7,0,3-1.4,3-3c0-1.7-1.4-3-3-3s-3,1.4-3,3
		C272.1,242.4,273.5,243.8,275.1,243.8"/>
	<path id="path420" fill="#FFFFFF" d="M275.7,230.7c1.5,0,2.8-1.2,2.8-2.8c0-1.5-1.3-2.8-2.8-2.8c-1.5,0-2.8,1.3-2.8,2.8
		C272.9,229.5,274.2,230.7,275.7,230.7"/>
	<path id="path422" fill="#FFFFFF" d="M278.8,218.6c1.4,0,2.5-1.1,2.5-2.5c0-1.4-1.1-2.5-2.5-2.5s-2.5,1.1-2.5,2.5
		C276.3,217.4,277.4,218.6,278.8,218.6"/>
	<path id="path424" fill="#FFFFFF" d="M284.9,207.6c1.3,0,2.3-1,2.3-2.3s-1-2.3-2.3-2.3s-2.3,1-2.3,2.3S283.6,207.6,284.9,207.6"/>
	<path id="path426" fill="#FFFFFF" d="M294.5,197.8c1.1,0,2-0.9,2-2c0-1.1-0.9-2-2-2c-1.1,0-2,0.9-2,2
		C292.4,196.9,293.3,197.8,294.5,197.8"/>
	<path id="path430" fill="#FFFFFF" d="M319.3,386.4c-3.1,0-5.6,2.5-5.6,5.6c0,1.9,0.9,3.5,2.4,4.6c0.9,0.7,2,1,3.2,1
		c3.1,0,5.6-2.5,5.6-5.6v0C324.8,388.9,322.3,386.4,319.3,386.4"/>
	<path id="path432" fill="#FFFFFF" d="M319.4,372.8c-3,0-5.4,2.4-5.4,5.4c0,3,2.4,5.4,5.4,5.4c3,0,5.4-2.4,5.4-5.4
		C324.8,375.2,322.4,372.8,319.4,372.8"/>
	<path id="path434" fill="#FFFFFF" d="M318.2,369.6c2.9,0,5.2-2.3,5.2-5.2s-2.3-5.2-5.2-5.2c-2.9,0-5.2,2.3-5.2,5.2
		S315.4,369.6,318.2,369.6"/>
	<path id="path436" fill="#FFFFFF" d="M311,350.7c0,2.8,2.2,5,5,5c2.8,0,5-2.2,5-5c0-2.8-2.2-5-5-5C313.2,345.7,311,348,311,350.7"
		/>
	<path id="path438" fill="#FFFFFF" d="M308.1,337.2c0,2.6,2.1,4.8,4.8,4.8c2.6,0,4.8-2.1,4.8-4.8c0-2.6-2.1-4.8-4.8-4.8
		C310.2,332.4,308.1,334.5,308.1,337.2"/>
	<path id="path440" fill="#FFFFFF" d="M309.2,319.2c-2.5,0-4.6,2.1-4.6,4.6c0,2.5,2.1,4.6,4.6,4.6c2.5,0,4.6-2.1,4.6-4.6
		C313.8,321.3,311.7,319.2,309.2,319.2"/>
	<path id="path442" fill="#FFFFFF" d="M300.7,310.7c0,2.4,2,4.4,4.4,4.4c2.4,0,4.4-2,4.4-4.4c0-2.4-2-4.4-4.4-4.4
		C302.7,306.3,300.7,308.3,300.7,310.7"/>
	<path id="path444" fill="#FFFFFF" d="M296.7,297.9c0,2.3,1.9,4.2,4.2,4.2s4.2-1.9,4.2-4.2s-1.9-4.2-4.2-4.2
		S296.7,295.6,296.7,297.9"/>
	<path id="path446" fill="#FFFFFF" d="M292.9,284.2c-0.1,0.3-0.2,0.6-0.2,0.9l0,0.3c0,2.2,1.8,4,4,4c1.2,0,2.3-0.6,3.1-1.5
		c0.3-0.4,0.6-0.8,0.7-1.3c0.1-0.4,0.2-0.8,0.2-1.2c0-2.2-1.8-4-4-4C294.9,281.5,293.4,282.6,292.9,284.2"/>
	<path id="path448" fill="#FFFFFF" d="M292.8,269.6c-2.1,0-3.8,1.7-3.8,3.8c0,2.1,1.7,3.8,3.8,3.8c2.1,0,3.8-1.7,3.8-3.8
		C296.6,271.3,294.9,269.6,292.8,269.6"/>
	<path id="path450" fill="#FFFFFF" d="M293.1,261.9c0-2-1.6-3.6-3.6-3.6c-2,0-3.6,1.6-3.6,3.6c0,2,1.6,3.6,3.6,3.6
		C291.5,265.4,293.1,263.8,293.1,261.9"/>
	<path id="path452" fill="#FFFFFF" d="M287,247.4c-1.9,0-3.4,1.5-3.4,3.4c0,1.9,1.5,3.4,3.4,3.4c1.9,0,3.4-1.5,3.4-3.4
		C290.4,248.9,288.9,247.4,287,247.4"/>
	<path id="path454" fill="#FFFFFF" d="M285.5,237.1c-1.8,0-3.2,1.4-3.2,3.2c0,1.8,1.4,3.2,3.2,3.2c1.7,0,3-1.3,3.2-2.9l0-0.2
		c0-0.5-0.1-1-0.3-1.4C287.8,237.9,286.7,237.1,285.5,237.1"/>
	<path id="path456" fill="#FFFFFF" d="M285.2,233.4c0.9,0,1.7-0.4,2.2-1c0.5-0.5,0.7-1.2,0.7-1.9c0-0.8-0.3-1.6-0.9-2.1
		c-0.5-0.5-1.3-0.8-2.1-0.8c-1.6,0-3,1.3-3,3C282.2,232.1,283.6,233.4,285.2,233.4"/>
	<path id="path458" fill="#FFFFFF" d="M288.4,219.4c-0.5-0.5-1.2-0.9-2-0.9c-1.5,0-2.8,1.2-2.8,2.8c0,1.5,1.2,2.8,2.8,2.8
		c0.4,0,0.8-0.1,1.2-0.3c1-0.4,1.6-1.4,1.6-2.5C289.2,220.6,288.9,219.9,288.4,219.4"/>
	<path id="path460" fill="#FFFFFF" d="M289.3,215.4c0.2,0,0.4,0,0.6-0.1c1.1-0.3,2-1.3,2-2.5c0-0.3-0.1-0.6-0.2-0.9
		c-0.4-1-1.3-1.7-2.4-1.7c-1.4,0-2.6,1.2-2.6,2.6C286.8,214.3,287.9,215.4,289.3,215.4"/>
	<path id="path462" fill="#FFFFFF" d="M294.2,207.6c0.5,0,1-0.2,1.4-0.5c0.2-0.2,0.4-0.3,0.5-0.6c0.3-0.4,0.4-0.8,0.4-1.3
		c0-1.3-1.1-2.4-2.4-2.4s-2.4,1.1-2.4,2.4C291.8,206.5,292.9,207.6,294.2,207.6"/>
	<path id="path464" fill="#FFFFFF" d="M301.2,200.6c1.2,0,2.2-1,2.2-2.2c0-1.2-1-2.2-2.2-2.2c-1.2,0-2.2,1-2.2,2.2
		C299,199.6,300,200.6,301.2,200.6"/>
	<path id="path470" fill="#FFFFFF" d="M311.9,435c0.6-1.7,0.3-3.4-0.6-4.8c-0.7-1-1.6-1.9-2.9-2.3c-1.2-0.4-2.5-0.4-3.6,0
		c-0.5,0.2-1,0.4-1.4,0.7c-0.9,0.7-1.7,1.6-2.1,2.7c-0.9,2.4,0.1,5.1,2.1,6.5c0.4,0.3,0.8,0.5,1.3,0.7
		C307.6,439.4,310.8,437.9,311.9,435"/>
	<path id="path472" fill="#FFFFFF" d="M299.3,441.8c-2.8-1-5.8,0.5-6.8,3.3c-1,2.8,0.5,5.8,3.3,6.8c2.8,1,5.8-0.5,6.8-3.3
		C303.5,445.8,302.1,442.8,299.3,441.8"/>
	<path id="path474" fill="#FFFFFF" d="M292.4,457.1c-2.6-0.9-5.6,0.5-6.5,3.1c-0.9,2.6,0.5,5.5,3.1,6.5c2.7,0.9,5.6-0.5,6.5-3.1
		C296.5,460.9,295.1,458,292.4,457.1"/>
	<path id="path476" fill="#FFFFFF" d="M287.4,473.4c-2.5-0.9-5.3,0.4-6.2,3c-0.9,2.5,0.4,5.3,3,6.2c2.5,0.9,5.3-0.4,6.2-3
		C291.3,477,289.9,474.3,287.4,473.4"/>
	<path id="path478" fill="#FFFFFF" d="M283.9,490.3c-2.4-0.8-5,0.4-5.8,2.8c-0.8,2.4,0.4,5,2.8,5.8c2.4,0.8,5-0.4,5.8-2.8
		C287.5,493.7,286.3,491.1,283.9,490.3"/>
	<path id="path480" fill="#FFFFFF" d="M281.4,507.5c-2.3-0.8-4.7,0.4-5.5,2.7c-0.8,2.3,0.4,4.7,2.7,5.5c2.3,0.8,4.7-0.4,5.5-2.7
		C284.8,510.8,283.6,508.3,281.4,507.5"/>
	<path id="path482" fill="#FFFFFF" d="M279.5,524.7c-2.1-0.7-4.4,0.4-5.2,2.5c-0.7,2.1,0.4,4.4,2.5,5.2c2.1,0.7,4.4-0.4,5.2-2.5
		C282.8,527.8,281.6,525.5,279.5,524.7"/>
	<path id="path484" fill="#FFFFFF" d="M277.9,541.6c-2-0.7-4.2,0.3-4.9,2.3c-0.7,2,0.4,4.2,2.3,4.9c1.6,0.6,3.4,0,4.3-1.4
		c0.1-0.1,0.2-0.3,0.2-0.4c0.1-0.2,0.2-0.4,0.3-0.6C280.9,544.4,279.8,542.2,277.9,541.6"/>
	<path id="path486" fill="#FFFFFF" d="M276.1,557.7L276.1,557.7c-0.5-0.2-0.9-0.2-1.3-0.2c-1.4,0-2.8,0.9-3.3,2.4
		c-0.5,1.6,0.1,3.2,1.4,4.1c0.2,0.1,0.4,0.3,0.7,0.3l0.1,0.1c1.9,0.7,3.9-0.3,4.5-2.2C278.8,560.4,277.9,558.4,276.1,557.7"/>
	<path id="path488" fill="#FFFFFF" d="M273.5,572.8c-1.7-0.6-3.6,0.3-4.2,2c-0.6,1.7,0.3,3.6,2,4.2c1.7,0.6,3.6-0.3,4.2-2
		C276.1,575.3,275.2,573.4,273.5,572.8"/>
	<path id="path490" fill="#FFFFFF" d="M270,586.5c-1.6-0.6-3.3,0.3-3.9,1.9c-0.6,1.6,0.3,3.3,1.9,3.9c1.6,0.6,3.3-0.3,3.9-1.9
		C272.4,588.8,271.6,587.1,270,586.5"/>
	<path id="path492" fill="#FFFFFF" d="M265,598.6c-1.5-0.5-3,0.3-3.6,1.7c-0.5,1.5,0.3,3,1.7,3.6c1.1,0.4,2.2,0.1,2.9-0.7
		c0.3-0.3,0.5-0.6,0.6-1l0-0.2C267.1,600.5,266.4,599.1,265,598.6"/>
	<path id="path494" fill="#FFFFFF" d="M258.2,608.6c-1.3-0.5-2.8,0.2-3.2,1.6c-0.5,1.3,0.2,2.8,1.6,3.2c1.3,0.5,2.8-0.2,3.2-1.6
		C260.2,610.5,259.5,609,258.2,608.6"/>
	<path id="path496" fill="#FFFFFF" d="M249,616.2c-1.2-0.4-2.5,0.2-2.9,1.4c-0.4,1.2,0.2,2.5,1.4,2.9c1.2,0.4,2.5-0.2,2.9-1.4
		C250.9,617.9,250.2,616.6,249,616.2"/>
	<path id="path498" fill="#FFFFFF" d="M237.2,621.1c-1.1-0.4-2.2,0.2-2.6,1.2c-0.4,1.1,0.2,2.2,1.2,2.6c1.1,0.4,2.2-0.2,2.6-1.2
		C238.8,622.6,238.3,621.5,237.2,621.1"/>
	<path id="path500" fill="#FFFFFF" d="M222.3,623c-0.9-0.3-1.9,0.2-2.3,1.1c-0.3,0.9,0.2,1.9,1.1,2.3c0.9,0.3,1.9-0.2,2.3-1.1
		C223.7,624.3,223.2,623.3,222.3,623"/>
	<path id="path502" fill="#FFFFFF" d="M290.4,433c1-2.9-0.5-6.1-3.4-7.1c-2.9-1-6.1,0.5-7.1,3.4c-1,2.9,0.5,6.1,3.4,7.1
		C286.2,437.5,289.4,435.9,290.4,433"/>
	<path id="path504" fill="#FFFFFF" d="M284.6,445.5c1-2.8-0.5-5.9-3.3-6.9c-2.8-1-5.9,0.5-6.9,3.3c-1,2.8,0.5,5.9,3.3,6.9
		C280.5,449.8,283.6,448.3,284.6,445.5"/>
	<path id="path506" fill="#FFFFFF" d="M280,458.5c0.9-2.7-0.5-5.7-3.2-6.6c-2.7-0.9-5.7,0.5-6.6,3.2c-0.9,2.7,0.5,5.7,3.2,6.6
		C276.1,462.6,279.1,461.2,280,458.5"/>
	<path id="path508" fill="#FFFFFF" d="M276.7,471.8c0.9-2.6-0.5-5.5-3.1-6.4c-2.6-0.9-5.5,0.5-6.4,3.1c-0.9,2.6,0.5,5.5,3.1,6.4
		C272.9,475.7,275.7,474.4,276.7,471.8"/>
	<path id="path510" fill="#FFFFFF" d="M274.2,485.2c0.9-2.5-0.4-5.2-2.9-6.1c-2.5-0.9-5.2,0.4-6.1,2.9c-0.9,2.5,0.4,5.2,2.9,6.1
		C270.6,489,273.4,487.7,274.2,485.2"/>
	<path id="path512" fill="#FFFFFF" d="M272.5,498.7c0.8-2.4-0.4-5-2.8-5.9c-2.4-0.8-5,0.4-5.8,2.8c-0.8,2.4,0.4,5,2.8,5.8
		C269.1,502.4,271.7,501.1,272.5,498.7"/>
	<path id="path514" fill="#FFFFFF" d="M268.7,506.5c-2.3-0.8-4.8,0.4-5.6,2.7c-0.8,2.3,0.4,4.8,2.7,5.6c2.3,0.8,4.8-0.4,5.6-2.7
		C272.2,509.8,271,507.3,268.7,506.5"/>
	<path id="path516" fill="#FFFFFF" d="M267.9,520c-2.2-0.8-4.6,0.4-5.3,2.6c-0.8,2.2,0.4,4.6,2.6,5.3c2.2,0.8,4.6-0.4,5.3-2.6
		C271.3,523.2,270.1,520.8,267.9,520"/>
	<path id="path518" fill="#FFFFFF" d="M267.3,533.1c-2.1-0.7-4.4,0.4-5.1,2.4c-0.7,2.1,0.4,4.4,2.4,5.1c2.1,0.7,4.4-0.4,5.1-2.4
		C270.5,536.1,269.4,533.9,267.3,533.1"/>
	<path id="path520" fill="#FFFFFF" d="M268.9,550.6c0.7-2-0.4-4.1-2.3-4.8c-2-0.7-4.1,0.3-4.8,2.3c-0.7,2,0.3,4.1,2.3,4.8
		C266.1,553.6,268.2,552.6,268.9,550.6"/>
	<path id="path522" fill="#FFFFFF" d="M267.8,562.4c0.7-1.9-0.3-3.9-2.2-4.6c-1.9-0.7-3.9,0.3-4.6,2.2c-0.7,1.9,0.3,3.9,2.2,4.6
		C265.1,565.3,267.1,564.3,267.8,562.4"/>
	<path id="path524" fill="#FFFFFF" d="M261.8,575.6c1.8,0.6,3.7-0.3,4.3-2.1c0.6-1.8-0.3-3.7-2.1-4.3c-1.8-0.6-3.7,0.3-4.3,2.1
		C259.1,573,260.1,574.9,261.8,575.6"/>
	<path id="path526" fill="#FFFFFF" d="M263.8,583.7c0.6-1.7-0.3-3.5-2-4.1c-1.7-0.6-3.5,0.3-4.1,2c-0.6,1.7,0.3,3.5,2,4.1
		C261.4,586.2,263.2,585.4,263.8,583.7"/>
	<path id="path528" fill="#FFFFFF" d="M258.6,589.1c-1.6-0.5-3.3,0.3-3.8,1.8c-0.5,1.6,0.3,3.3,1.8,3.8c1.6,0.5,3.3-0.3,3.8-1.8
		C261,591.4,260.2,589.7,258.6,589.1"/>
	<path id="path530" fill="#FFFFFF" d="M256,601c0.5-1.4-0.3-3-1.7-3.5c-1.4-0.5-3,0.3-3.5,1.7c-0.5,1.4,0.3,3,1.7,3.5
		C253.9,603.3,255.5,602.5,256,601"/>
	<path id="path532" fill="#FFFFFF" d="M247,609.5c1.3,0.5,2.8-0.2,3.3-1.6c0.5-1.3-0.2-2.8-1.6-3.3c-1.3-0.5-2.8,0.2-3.3,1.6
		C244.9,607.6,245.6,609,247,609.5"/>
	<path id="path534" fill="#FFFFFF" d="M241.5,610.4c-1.2-0.4-2.6,0.2-3,1.5c-0.4,1.2,0.2,2.6,1.5,3c1.2,0.4,2.6-0.2,3-1.5
		C243.4,612.2,242.7,610.8,241.5,610.4"/>
	<path id="path536" fill="#FFFFFF" d="M232.5,614.6c-1.1-0.4-2.4,0.2-2.8,1.3c-0.4,1.1,0.2,2.4,1.3,2.8c1.1,0.4,2.4-0.2,2.8-1.3
		S233.6,615,232.5,614.6"/>
	<path id="path538" fill="#FFFFFF" d="M222.8,619.8c0.4-1-0.2-2.2-1.2-2.5c-1-0.4-2.2,0.2-2.5,1.2c-0.4,1,0.2,2.2,1.2,2.5
		C221.3,621.4,222.4,620.8,222.8,619.8"/>
	<path id="path540" fill="#FFFFFF" d="M208.5,618.1c-0.9-0.3-1.9,0.2-2.3,1.1c-0.3,0.9,0.2,1.9,1.1,2.3c0.9,0.3,1.9-0.2,2.3-1.1
		C209.9,619.5,209.4,618.5,208.5,618.1"/>
	<path id="path542" fill="#FFFFFF" d="M290.7,410.1c-0.4-0.8-1-1.5-1.7-2.1c-1.6-1.2-3.8-1.6-5.8-0.6c-2.8,1.3-4,4.6-2.7,7.4
		c0.5,1,1.2,1.8,2.1,2.4c1.6,1,3.6,1.2,5.4,0.4C290.8,416.2,292,412.9,290.7,410.1"/>
	<path id="path544" fill="#FFFFFF" d="M275.2,422.9c2.7-1.3,3.9-4.5,2.6-7.2c-1.3-2.7-4.5-3.9-7.2-2.6c-2.7,1.3-3.9,4.5-2.6,7.2
		C269.3,423,272.5,424.1,275.2,422.9"/>
	<path id="path546" fill="#FFFFFF" d="M262.9,429.2c2.6-1.2,3.7-4.3,2.5-6.9c-1.2-2.6-4.3-3.7-6.9-2.5c-2.6,1.2-3.7,4.3-2.5,6.9
		C257.2,429.3,260.3,430.4,262.9,429.2"/>
	<path id="path548" fill="#FFFFFF" d="M251.1,436.3c2.5-1.2,3.6-4.1,2.4-6.6c-1.2-2.5-4.1-3.6-6.6-2.4c-2.5,1.2-3.6,4.1-2.4,6.6
		C245.6,436.4,248.6,437.5,251.1,436.3"/>
	<path id="path550" fill="#FFFFFF" d="M239.7,444c2.4-1.1,3.4-4,2.3-6.4c-1.1-2.4-4-3.4-6.4-2.3c-2.4,1.1-3.4,4-2.3,6.4
		C234.4,444.1,237.3,445.1,239.7,444"/>
	<path id="path552" fill="#FFFFFF" d="M230.9,446c-1.1-2.3-3.8-3.3-6.1-2.2c-2.3,1.1-3.3,3.8-2.2,6.1s3.8,3.3,6.1,2.2
		C231,451,232,448.3,230.9,446"/>
	<path id="path554" fill="#FFFFFF" d="M220.1,454.5c-1-2.2-3.6-3.1-5.8-2.1c-2.2,1-3.1,3.6-2.1,5.8c1,2.2,3.6,3.1,5.8,2.1
		C220.2,459.3,221.2,456.7,220.1,454.5"/>
	<path id="path556" fill="#FFFFFF" d="M204.2,460.9c-2.1,1-3,3.5-2,5.6c1,2.1,3.5,3,5.6,2c2.1-1,3-3.5,2-5.6
		C208.8,460.9,206.3,459.9,204.2,460.9"/>
	<path id="path558" fill="#FFFFFF" d="M194.3,469.3c-2,0.9-2.9,3.3-1.9,5.3c0.9,2,3.3,2.9,5.3,1.9c2-0.9,2.9-3.3,1.9-5.3
		C198.7,469.2,196.3,468.3,194.3,469.3"/>
	<path id="path560" fill="#FFFFFF" d="M184.8,477.2c-1.9,0.9-2.7,3.1-1.8,5c0.9,1.9,3.1,2.7,5,1.8c1.9-0.9,2.7-3.1,1.8-5
		C188.9,477.1,186.7,476.3,184.8,477.2"/>
	<path id="path562" fill="#FFFFFF" d="M175.4,484.4c-1.8,0.8-2.6,3-1.7,4.8c0.8,1.8,3,2.6,4.8,1.7c1.8-0.8,2.6-3,1.7-4.8
		C179.4,484.4,177.2,483.6,175.4,484.4"/>
	<path id="path564" fill="#FFFFFF" d="M166.3,490.9c-1.7,0.8-2.4,2.8-1.6,4.5c0.8,1.7,2.8,2.4,4.5,1.6c1.7-0.8,2.4-2.8,1.6-4.5
		C170,490.8,168,490.1,166.3,490.9"/>
	<path id="path566" fill="#FFFFFF" d="M157.3,496.3c-1.6,0.7-2.3,2.6-1.5,4.2c0.7,1.6,2.6,2.3,4.2,1.5c1.6-0.7,2.3-2.6,1.5-4.2
		C160.8,496.2,158.9,495.5,157.3,496.3"/>
	<path id="path568" fill="#FFFFFF" d="M148.5,500.5c-1.5,0.7-2.1,2.5-1.4,4c0.7,1.5,2.5,2.1,4,1.4c1.5-0.7,2.1-2.5,1.4-4
		C151.8,500.4,150,499.8,148.5,500.5"/>
	<path id="path570" fill="#FFFFFF" d="M139.8,503.2c-1.4,0.6-2,2.3-1.3,3.7c0.6,1.4,2.3,2,3.7,1.3c1.4-0.6,2-2.3,1.3-3.7
		C142.8,503.1,141.2,502.5,139.8,503.2"/>
	<path id="path572" fill="#FFFFFF" d="M131.1,504.3c-1.3,0.6-1.8,2.1-1.2,3.4c0.6,1.3,2.1,1.8,3.4,1.2c1.3-0.6,1.8-2.1,1.2-3.4
		C133.9,504.2,132.4,503.7,131.1,504.3"/>
	<path id="path574" fill="#FFFFFF" d="M122.5,503.5c-1.2,0.6-1.7,2-1.1,3.2c0.6,1.2,2,1.7,3.2,1.1c1.2-0.6,1.7-2,1.1-3.2
		C125.1,503.5,123.7,503,122.5,503.5"/>
	<path id="path576" fill="#FFFFFF" d="M113.9,500.7c-1.1,0.5-1.6,1.8-1.1,2.9c0.5,1.1,1.8,1.6,2.9,1c1.1-0.5,1.6-1.8,1-2.9
		C116.3,500.7,115,500.2,113.9,500.7"/>
	<path id="path578" fill="#FFFFFF" d="M105.2,495.7c-1,0.5-1.4,1.6-1,2.6c0.5,1,1.6,1.4,2.6,1c1-0.5,1.4-1.6,1-2.6
		C107.4,495.6,106.2,495.2,105.2,495.7"/>
	<path id="path580" fill="#FFFFFF" d="M96.5,488.2c-0.9,0.4-1.3,1.5-0.9,2.4c0.4,0.9,1.5,1.3,2.4,0.9c0.9-0.4,1.3-1.5,0.9-2.4
		C98.4,488.1,97.4,487.8,96.5,488.2"/>
	<path id="path582" fill="#FFFFFF" d="M272.2,396.8c2.7,1.6,6.1,0.7,7.7-2c1.6-2.7,0.7-6.1-2-7.7c-2.7-1.6-6.1-0.7-7.7,2
		C268.7,391.8,269.6,395.2,272.2,396.8"/>
	<path id="path584" fill="#FFFFFF" d="M257.5,387.5c2.5,1.5,5.8,0.6,7.3-1.9c1.5-2.5,0.6-5.8-1.9-7.3c-2.5-1.5-5.8-0.6-7.3,1.9
		C254.1,382.7,254.9,386,257.5,387.5"/>
	<path id="path586" fill="#FFFFFF" d="M242.1,379.7c2.4,1.4,5.5,0.6,7-1.8c1.4-2.4,0.6-5.5-1.8-7c-2.4-1.4-5.5-0.6-7,1.8
		C238.9,375.2,239.7,378.3,242.1,379.7"/>
	<path id="path588" fill="#FFFFFF" d="M226.4,373.3c2.3,1.4,5.3,0.6,6.6-1.7c1.4-2.3,0.6-5.3-1.7-6.6c-2.3-1.4-5.3-0.6-6.6,1.7
		C223.4,369,224.1,371.9,226.4,373.3"/>
	<path id="path590" fill="#FFFFFF" d="M217,366.1c1.3-2.2,0.6-5-1.6-6.3c-2.2-1.3-5-0.6-6.3,1.6c-1.3,2.2-0.6,5,1.6,6.3
		C212.9,369.1,215.7,368.3,217,366.1"/>
	<path id="path592" fill="#FFFFFF" d="M199.6,355.5c-2.1-1.2-4.7-0.5-5.9,1.5c-1.2,2.1-0.5,4.7,1.5,5.9c2.1,1.2,4.7,0.5,5.9-1.5
		C202.3,359.3,201.6,356.7,199.6,355.5"/>
	<path id="path594" fill="#FFFFFF" d="M185.7,357c1.1-1.9,0.5-4.4-1.4-5.6c-1.9-1.1-4.4-0.5-5.6,1.4c-1.1,1.9-0.5,4.4,1.4,5.6
		C182.1,359.6,184.6,359,185.7,357"/>
	<path id="path596" fill="#FFFFFF" d="M169.8,347.5c-1.8-1.1-4.2-0.5-5.2,1.4c-1.1,1.8-0.5,4.2,1.4,5.2c1.8,1.1,4.2,0.5,5.2-1.4
		C172.2,350.9,171.6,348.6,169.8,347.5"/>
	<path id="path598" fill="#FFFFFF" d="M157.6,348.2c1-1.7,0.4-3.9-1.3-4.9c-1.7-1-3.9-0.4-4.9,1.3c-1,1.7-0.4,3.9,1.3,4.9
		C154.4,350.5,156.6,349.9,157.6,348.2"/>
	<path id="path600" fill="#FFFFFF" d="M144.1,338.6c-1.6-0.9-3.6-0.4-4.5,1.2c-0.9,1.6-0.4,3.6,1.2,4.5c1.6,0.9,3.6,0.4,4.5-1.2
		C146.2,341.6,145.7,339.6,144.1,338.6"/>
	<path id="path602" fill="#FFFFFF" d="M133.5,333.1c-1.5-0.9-3.3-0.4-4.2,1.1c-0.9,1.5-0.4,3.3,1.1,4.2c1.5,0.9,3.3,0.4,4.2-1.1
		C135.4,335.8,135,334,133.5,333.1"/>
	<path id="path604" fill="#FFFFFF" d="M124.8,326.4c-1.3-0.8-3-0.3-3.8,1c-0.8,1.3-0.3,3,1,3.8c1.3,0.8,3,0.3,3.8-1
		C126.5,328.9,126.1,327.2,124.8,326.4"/>
	<path id="path606" fill="#FFFFFF" d="M118.1,318.3c-1.2-0.7-2.8-0.3-3.5,0.9c-0.7,1.2-0.3,2.8,0.9,3.5c1.2,0.7,2.8,0.3,3.5-0.9
		C119.7,320.6,119.3,319.1,118.1,318.3"/>
	<path id="path608" fill="#FFFFFF" d="M114.7,311.6c0.6-1.1,0.3-2.5-0.8-3.1c-1.1-0.6-2.5-0.3-3.1,0.8c-0.6,1.1-0.3,2.5,0.8,3.1
		C112.6,313.1,114,312.7,114.7,311.6"/>
	<path id="path610" fill="#FFFFFF" d="M113,299.4c0.6-1,0.2-2.2-0.7-2.8c-1-0.6-2.2-0.2-2.8,0.7c-0.6,1-0.2,2.2,0.7,2.8
		C111.2,300.7,112.4,300.4,113,299.4"/>
	<path id="path612" fill="#FFFFFF" d="M111.8,285.5c0.8,0.5,1.9,0.2,2.4-0.6c0.5-0.8,0.2-1.9-0.6-2.4c-0.5-0.3-1.1-0.3-1.6-0.1
		c-0.3,0.1-0.6,0.4-0.8,0.7c-0.4,0.6-0.3,1.4,0.1,2C111.4,285.3,111.6,285.4,111.8,285.5"/>
	<path id="path614" fill="#FFFFFF" d="M343.5,436.2c-1.3,2.6-0.4,5.8,2.2,7.3c2.7,1.6,6.1,0.7,7.7-2c0.9-1.6,1-3.5,0.3-5.1
		c-0.5-1-1.2-2-2.3-2.6c-2.7-1.6-6.1-0.7-7.7,2L343.5,436.2"/>
	<path id="path616" fill="#FFFFFF" d="M367.3,451.6c1.5-2.5,0.7-5.8-1.9-7.3c-2.5-1.5-5.8-0.6-7.3,1.9c-1.5,2.5-0.6,5.8,1.9,7.3
		C362.5,455,365.8,454.1,367.3,451.6"/>
	<path id="path618" fill="#FFFFFF" d="M380.2,453.1c-2.4-1.4-5.5-0.6-7,1.8c-1.4,2.4-0.6,5.5,1.8,7c2.4,1.4,5.5,0.6,7-1.8
		C383.4,457.7,382.6,454.6,380.2,453.1"/>
	<path id="path620" fill="#FFFFFF" d="M390.4,469.1c2.3,1.4,5.3,0.6,6.6-1.7c1.4-2.3,0.6-5.3-1.7-6.6c-2.3-1.4-5.3-0.6-6.6,1.7
		C387.4,464.8,388.1,467.7,390.4,469.1"/>
	<path id="path622" fill="#FFFFFF" d="M410.6,467.4c-2.2-1.3-5-0.6-6.3,1.6c-1.3,2.2-0.6,5,1.6,6.3c2.2,1.3,5,0.6,6.3-1.6
		C413.5,471.5,412.8,468.7,410.6,467.4"/>
	<path id="path624" fill="#FFFFFF" d="M426.5,473.9c-0.2-0.2-0.5-0.4-0.7-0.5c-2.1-1.2-4.7-0.5-5.9,1.5c-1.2,2.1-0.5,4.7,1.5,5.9
		c2.1,1.2,4.7,0.5,5.9-1.5c0.6-1,0.7-2.2,0.5-3.2C427.6,475.2,427.1,474.5,426.5,473.9"/>
	<path id="path626" fill="#FFFFFF" d="M440.4,478.9c-1.3-0.8-2.9-0.7-4.2,0c-0.6,0.3-1,0.8-1.4,1.4c-0.4,0.6-0.5,1.3-0.5,1.9
		c0,1.4,0.7,2.8,2,3.6c1.5,0.9,3.3,0.7,4.6-0.4c0.4-0.3,0.7-0.7,0.9-1.1c0.2-0.3,0.3-0.7,0.4-1C442.7,481.8,442,479.9,440.4,478.9"
		/>
	<path id="path628" fill="#FFFFFF" d="M454.3,484.4c-1.8-1.1-4.2-0.5-5.2,1.4c-1.1,1.8-0.5,4.2,1.4,5.2c1.8,1.1,4.2,0.5,5.2-1.4
		C456.8,487.8,456.2,485.4,454.3,484.4"/>
	<path id="path630" fill="#FFFFFF" d="M467.2,489.9c-1.7-1-3.9-0.4-4.9,1.3c-1,1.7-0.4,3.9,1.3,4.9c1.7,1,3.9,0.4,4.9-1.3
		C469.5,493.1,468.9,490.9,467.2,489.9"/>
	<path id="path632" fill="#FFFFFF" d="M478.7,496c-1.6-0.9-3.6-0.4-4.5,1.2c-0.9,1.6-0.4,3.6,1.2,4.5s3.6,0.4,4.5-1.2
		C480.8,498.9,480.3,496.9,478.7,496"/>
	<path id="path634" fill="#FFFFFF" d="M488.6,502.7c-1.5-0.9-3.3-0.4-4.2,1.1c-0.9,1.5-0.4,3.3,1.1,4.2c1.5,0.9,3.3,0.4,4.2-1.1
		C490.6,505.4,490.1,503.5,488.6,502.7"/>
	<path id="path636" fill="#FFFFFF" d="M496.6,510.4c-1.3-0.8-3-0.3-3.8,1c-0.8,1.3-0.3,3,1,3.8c1.3,0.8,3,0.3,3.8-1
		C498.4,512.9,497.9,511.2,496.6,510.4"/>
	<path id="path638" fill="#FFFFFF" d="M503.3,522.9c0.7-1.2,0.3-2.8-0.9-3.5c-1.2-0.7-2.8-0.3-3.5,0.9c-0.7,1.2-0.3,2.8,0.9,3.5
		C501,524.5,502.6,524.1,503.3,522.9"/>
	<path id="path640" fill="#FFFFFF" d="M502.5,530.7c-0.6,1.1-0.3,2.5,0.8,3.1c1.1,0.6,2.5,0.3,3.1-0.8c0.6-1.1,0.3-2.5-0.8-3.1
		C504.5,529.3,503.1,529.7,502.5,530.7"/>
	<path id="path642" fill="#FFFFFF" d="M506.1,542.3c-1-0.6-2.2-0.2-2.8,0.7c-0.6,1-0.2,2.2,0.7,2.8c1,0.6,2.2,0.2,2.8-0.7
		C507.4,544.1,507,542.9,506.1,542.3"/>
	<path id="path644" fill="#FFFFFF" d="M503.4,556.8c-0.8-0.5-1.9-0.2-2.4,0.6c-0.5,0.8-0.2,1.9,0.6,2.4c0.8,0.5,1.9,0.2,2.4-0.6
		C504.6,558.4,504.3,557.3,503.4,556.8"/>
	<path id="path646" fill="#FFFFFF" d="M330.8,392.6c2.4,1.9,5.9,1.5,7.9-0.9c1.9-2.4,1.5-5.9-0.9-7.9c-2.4-1.9-5.9-1.5-7.9,0.9
		C328,387.2,328.4,390.7,330.8,392.6"/>
	<path id="path648" fill="#FFFFFF" d="M343,379.8c2.3,1.8,5.7,1.5,7.5-0.9c1.8-2.3,1.5-5.7-0.9-7.5c-2.3-1.8-5.7-1.5-7.5,0.9
		C340.3,374.6,340.7,378,343,379.8"/>
	<path id="path650" fill="#FFFFFF" d="M353.8,366c2.2,1.7,5.4,1.4,7.1-0.8c1.7-2.2,1.4-5.4-0.8-7.1c-2.2-1.7-5.4-1.4-7.1,0.8
		S351.6,364.3,353.8,366"/>
	<path id="path652" fill="#FFFFFF" d="M363.4,351.7c2.1,1.7,5.1,1.3,6.8-0.8c1.7-2.1,1.3-5.1-0.8-6.8c-2.1-1.7-5.1-1.3-6.8,0.8
		C361,347,361.3,350,363.4,351.7"/>
	<path id="path654" fill="#FFFFFF" d="M372.1,337.1c2,1.6,4.9,1.2,6.4-0.7c1.6-2,1.2-4.9-0.7-6.4c-2-1.6-4.9-1.2-6.4,0.7
		C369.8,332.7,370.1,335.5,372.1,337.1"/>
	<path id="path656" fill="#FFFFFF" d="M380.1,322.6c1.9,1.5,4.6,1.2,6.1-0.7c1.5-1.9,1.2-4.6-0.7-6.1c-1.9-1.5-4.6-1.2-6.1,0.7
		C377.9,318.4,378.2,321.1,380.1,322.6"/>
	<path id="path658" fill="#FFFFFF" d="M387.6,308.5c0.1,0.1,0.3,0.2,0.4,0.3c1.7,1.1,4,0.7,5.3-0.9c1-1.3,1.1-2.9,0.5-4.3
		c-0.2-0.5-0.5-0.9-0.9-1.2l-0.2-0.2c-1.8-1.4-4.3-1.1-5.7,0.7c-0.8,1-1,2.2-0.8,3.3C386.3,307,386.8,307.9,387.6,308.5"/>
	<path id="path660" fill="#FFFFFF" d="M394.9,295.1c1.6,1.3,4.1,1,5.4-0.6c1.3-1.6,1-4-0.6-5.4c-1.6-1.3-4-1-5.4,0.6
		C392.9,291.4,393.2,293.8,394.9,295.1"/>
	<path id="path662" fill="#FFFFFF" d="M402.1,282.8c1.5,1.2,3.8,1,5-0.6c1.2-1.5,1-3.8-0.6-5c-1.5-1.2-3.8-1-5,0.6
		C400.3,279.3,400.6,281.6,402.1,282.8"/>
	<path id="path664" fill="#FFFFFF" d="M413.8,266.7c-1.4-1.1-3.5-0.9-4.6,0.5c-1.1,1.4-0.9,3.5,0.5,4.6c1.4,1.1,3.5,0.9,4.6-0.5
		C415.4,269.9,415.2,267.8,413.8,266.7"/>
	<path id="path666" fill="#FFFFFF" d="M421.9,262.1c1-1.3,0.8-3.2-0.5-4.3c-1.1-0.9-2.5-0.9-3.6-0.1c-0.2,0.2-0.5,0.4-0.7,0.6
		l-0.1,0.1c-0.9,1.3-0.7,3.1,0.6,4.2C419,263.7,420.9,263.5,421.9,262.1"/>
	<path id="path668" fill="#FFFFFF" d="M429.8,251.1c-1.2-1-3-0.8-3.9,0.5c-1,1.2-0.8,3,0.4,3.9c1.2,1,3,0.8,3.9-0.5
		S431,252,429.8,251.1"/>
	<path id="path670" fill="#FFFFFF" d="M436,250.6c1.1,0.9,2.7,0.7,3.6-0.4c0.9-1.1,0.7-2.7-0.4-3.6c-1.1-0.9-2.7-0.7-3.6,0.4
		C434.7,248.2,434.9,249.8,436,250.6"/>
	<path id="path672" fill="#FFFFFF" d="M446.9,248.5c1,0.8,2.4,0.6,3.2-0.4c0.8-1,0.6-2.4-0.4-3.2c-1-0.8-2.4-0.6-3.2,0.4
		C445.7,246.3,445.9,247.8,446.9,248.5"/>
	<path id="path674" fill="#FFFFFF" d="M462,249.1c0.7-0.9,0.6-2.2-0.3-2.8c-0.9-0.7-2.2-0.5-2.9,0.3c-0.7,0.9-0.5,2.2,0.3,2.8
		C460,250.1,461.3,250,462,249.1"/>
	<path id="path676" fill="#FFFFFF" d="M473.1,253.7c0.8,0.6,1.9,0.5,2.5-0.3c0.6-0.8,0.5-1.9-0.3-2.5c-0.8-0.6-1.9-0.5-2.5,0.3
		S472.3,253.1,473.1,253.7"/>
	<path id="path678" fill="#FFFFFF" d="M313.4,459.8c2.8-1.3,4.1-4.6,2.8-7.4c-1.3-2.8-4.6-4.1-7.4-2.8c-2.8,1.3-4.1,4.6-2.8,7.4
		C307.3,459.8,310.6,461,313.4,459.8"/>
	<path id="path680" fill="#FFFFFF" d="M321.4,465.3c-1.2-2.7-4.4-4-7.1-2.7c-2.7,1.2-4,4.4-2.7,7.1c1.2,2.7,4.4,4,7.1,2.7
		C321.3,471.2,322.6,468,321.4,465.3"/>
	<path id="path682" fill="#FFFFFF" d="M327.4,477.7c-1.2-2.6-4.2-3.8-6.9-2.6c-2.6,1.2-3.8,4.2-2.6,6.9c1.2,2.6,4.2,3.8,6.9,2.6
		C327.4,483.4,328.6,480.3,327.4,477.7"/>
	<path id="path684" fill="#FFFFFF" d="M334.3,489.6c-1.1-2.5-4.1-3.7-6.6-2.5c-2.5,1.1-3.7,4.1-2.5,6.6s4.1,3.7,6.6,2.5
		C334.3,495,335.4,492.1,334.3,489.6"/>
	<path id="path686" fill="#FFFFFF" d="M341.8,501c-1.1-2.4-3.9-3.5-6.3-2.4c-2.4,1.1-3.5,3.9-2.4,6.3s3.9,3.5,6.3,2.4
		C341.8,506.3,342.9,503.4,341.8,501"/>
	<path id="path688" fill="#FFFFFF" d="M349.6,512c-1-2.3-3.7-3.4-6.1-2.3c-2.3,1-3.4,3.7-2.3,6.1c1,2.3,3.7,3.4,6.1,2.3
		C349.6,517.1,350.7,514.4,349.6,512"/>
	<path id="path690" fill="#FFFFFF" d="M357.7,522.7c-1-2.2-3.6-3.2-5.8-2.2c-2.2,1-3.2,3.6-2.2,5.8c1,2.2,3.6,3.2,5.8,2.2
		C357.6,527.5,358.6,524.9,357.7,522.7"/>
	<path id="path692" fill="#FFFFFF" d="M365.7,533c-0.9-2.1-3.4-3.1-5.5-2.1c-2.1,0.9-3.1,3.4-2.1,5.5c0.9,2.1,3.4,3.1,5.5,2.1
		C365.6,537.6,366.6,535.1,365.7,533"/>
	<path id="path694" fill="#FFFFFF" d="M373.4,543c-0.9-2-3.2-2.9-5.3-2c-2,0.9-2.9,3.2-2,5.3c0.9,2,3.2,2.9,5.3,2
		C373.4,547.4,374.3,545,373.4,543"/>
	<path id="path696" fill="#FFFFFF" d="M381,553.3c-0.1-0.2-0.1-0.4-0.2-0.6c-0.2-0.5-0.5-0.9-0.9-1.3c-1.1-1-2.7-1.3-4.1-0.7
		c-1.9,0.8-2.8,3.1-1.9,5c0.8,1.9,3.1,2.8,5,1.9c0.4-0.2,0.8-0.5,1.1-0.8c0.4-0.4,0.7-0.8,0.9-1.3
		C381.1,554.9,381.2,554.1,381,553.3"/>
	<path id="path698" fill="#FFFFFF" d="M387.5,562.1c-0.8-1.8-2.9-2.6-4.7-1.8c-1.8,0.8-2.6,2.9-1.8,4.7c0.8,1.8,2.9,2.6,4.7,1.8
		C387.5,566.1,388.3,564,387.5,562.1"/>
	<path id="path700" fill="#FFFFFF" d="M393.4,571.4c-0.8-1.7-2.8-2.5-4.5-1.7c-1.7,0.8-2.5,2.8-1.7,4.5c0.8,1.7,2.8,2.5,4.5,1.7
		C393.4,575.1,394.2,573.1,393.4,571.4"/>
	<path id="path702" fill="#FFFFFF" d="M398.3,582.9c0.3-0.8,0.3-1.6-0.1-2.4c-0.3-0.7-0.8-1.2-1.5-1.5c-0.8-0.4-1.8-0.5-2.7-0.1
		c-1.6,0.7-2.3,2.6-1.6,4.2c0.7,1.6,2.6,2.3,4.2,1.6C397.5,584.3,398.1,583.6,398.3,582.9"/>
	<path id="path704" fill="#FFFFFF" d="M401.4,592.5c0.7-0.8,0.9-2,0.5-3.1c-0.4-0.8-1.1-1.4-1.9-1.6c-0.7-0.2-1.4-0.2-2.1,0.1
		c-1.5,0.7-2.2,2.4-1.5,3.9c0.7,1.5,2.4,2.2,3.9,1.5C400.8,593.1,401.2,592.8,401.4,592.5"/>
	<path id="path706" fill="#FFFFFF" d="M402.7,601.8c0.2-0.1,0.4-0.2,0.6-0.4c1-0.8,1.3-2.1,0.8-3.3c-0.3-0.7-0.9-1.3-1.6-1.5
		c-0.6-0.2-1.4-0.2-2,0.1c-1.4,0.6-2,2.3-1.4,3.7C399.6,601.8,401.3,602.4,402.7,601.8"/>
	<path id="path708" fill="#FFFFFF" d="M403.7,605.8c-0.7-0.5-1.6-0.6-2.5-0.2c-1.3,0.6-1.9,2.1-1.3,3.4c0.6,1.3,2.1,1.9,3.4,1.3
		c0.2-0.1,0.4-0.2,0.5-0.3c0.9-0.7,1.3-2,0.8-3.1C404.4,606.4,404.1,606,403.7,605.8"/>
	<path id="path710" fill="#FFFFFF" d="M403.3,615.5c-0.5-1.2-1.9-1.7-3.1-1.2c-1.2,0.5-1.7,1.9-1.2,3.1c0.5,1.2,1.9,1.7,3.1,1.2
		c0.5-0.2,0.8-0.5,1.1-0.9c0.3-0.5,0.4-1.2,0.3-1.8C403.4,615.8,403.4,615.7,403.3,615.5"/>
	<path id="path712" fill="#FFFFFF" d="M397.1,623.1c-1.1,0.5-1.6,1.8-1.1,2.9c0.5,1.1,1.8,1.6,2.9,1.1c1.1-0.5,1.6-1.8,1.1-2.9
		C399.5,623.1,398.2,622.6,397.1,623.1"/>
	<path id="path714" fill="#FFFFFF" d="M391.8,631.8c-1,0.4-1.4,1.6-1,2.6c0.4,1,1.6,1.4,2.6,1c1-0.4,1.4-1.6,1-2.6
		C394,631.8,392.8,631.4,391.8,631.8"/>
	<path id="path716" fill="#FFFFFF" d="M384.1,640.7c-0.9,0.4-1.3,1.4-0.9,2.3c0.4,0.9,1.4,1.3,2.3,0.9c0.9-0.4,1.3-1.4,0.9-2.3
		C386,640.7,385,640.3,384.1,640.7"/>
	<path id="path718" fill="#FFFFFF" d="M326.9,415.8c0.1-3.1-2.2-5.7-5.3-5.9c-3.1-0.1-5.7,2.2-5.8,5.3c-0.1,3.1,2.2,5.7,5.3,5.9
		C324.2,421.3,326.8,418.9,326.9,415.8"/>
	<path id="path720" fill="#FFFFFF" d="M335,421.7c3,0.1,5.5-2.2,5.6-5.1c0.1-3-2.2-5.5-5.1-5.6c-3-0.1-5.5,2.2-5.6,5.1
		C329.8,419,332.1,421.6,335,421.7"/>
	<path id="path722" fill="#FFFFFF" d="M349.3,421c2.9,0.1,5.3-2.1,5.4-4.9c0.1-2.9-2.1-5.3-4.9-5.4c-2.9-0.1-5.3,2.1-5.4,4.9
		C344.2,418.4,346.4,420.8,349.3,421"/>
	<path id="path724" fill="#FFFFFF" d="M364.2,409.2c-2.8-0.1-5.1,2-5.2,4.8c-0.1,2.8,2,5.1,4.8,5.2c2.8,0.1,5.1-2,5.2-4.8
		C369.1,411.6,366.9,409.3,364.2,409.2"/>
	<path id="path726" fill="#FFFFFF" d="M378.7,406.9c-2.6-0.1-4.9,1.9-5,4.6c-0.1,2.6,1.9,4.9,4.6,5c2.6,0.1,4.9-1.9,5-4.6
		C383.4,409.2,381.4,407,378.7,406.9"/>
	<path id="path728" fill="#FFFFFF" d="M392.8,413.1c2.5,0.1,4.7-1.8,4.8-4.4c0.1-2.5-1.8-4.7-4.4-4.8c-2.5-0.1-4.7,1.8-4.8,4.4
		C388.3,410.8,390.3,413,392.8,413.1"/>
	<path id="path730" fill="#FFFFFF" d="M407.3,409.4c2.4,0.1,4.5-1.8,4.6-4.2c0.1-2.4-1.8-4.5-4.2-4.6c-2.4-0.1-4.5,1.8-4.6,4.2
		C403,407.2,404.9,409.3,407.3,409.4"/>
	<path id="path732" fill="#FFFFFF" d="M426,401.5c0.1-2.3-1.7-4.3-4-4.4s-4.3,1.7-4.4,4c-0.1,2.3,1.7,4.3,4,4.4
		C423.9,405.6,425.9,403.8,426,401.5"/>
	<path id="path734" fill="#FFFFFF" d="M439.7,398.5c0-0.2,0.1-0.4,0.1-0.6c0.1-2.2-1.6-4.1-3.8-4.2c-0.8,0-1.6,0.2-2.3,0.6
		c-1.1,0.7-1.8,1.8-1.9,3.2c-0.1,2.2,1.6,4.1,3.8,4.2C437.6,401.8,439.3,400.4,439.7,398.5"/>
	<path id="path736" fill="#FFFFFF" d="M450,398.1c1.7-0.3,3.1-1.7,3.2-3.6c0.1-2.1-1.5-3.9-3.6-4c-2.1-0.1-3.9,1.5-4,3.6
		c0,1,0.3,1.9,0.9,2.7c0.7,0.8,1.6,1.2,2.7,1.3C449.5,398.1,449.8,398.1,450,398.1"/>
	<path id="path738" fill="#FFFFFF" d="M466.2,391.7c0.1-2-1.4-3.7-3.4-3.7c-2-0.1-3.7,1.4-3.7,3.4c-0.1,2,1.4,3.7,3.4,3.7
		C464.4,395.2,466.1,393.7,466.2,391.7"/>
	<path id="path740" fill="#FFFFFF" d="M478.6,389.6c0.1-1.9-1.4-3.4-3.2-3.5c-1.9-0.1-3.4,1.4-3.5,3.2c-0.1,1.9,1.4,3.5,3.2,3.5
		C476.9,392.9,478.5,391.5,478.6,389.6"/>
	<path id="path742" fill="#FFFFFF" d="M487.3,385.2c-1.8-0.1-3.2,1.3-3.3,3c-0.1,1.8,1.3,3.2,3,3.3c1.8,0.1,3.2-1.3,3.3-3
		C490.4,386.8,489,385.3,487.3,385.2"/>
	<path id="path744" fill="#FFFFFF" d="M501.2,388.7c0.1-1.6-1.2-3-2.8-3.1c-1.6-0.1-3,1.2-3.1,2.8c-0.1,1.6,1.2,3,2.8,3.1
		C499.8,391.6,501.2,390.3,501.2,388.7"/>
	<path id="path746" fill="#FFFFFF" d="M508.7,387.3c-1.5-0.1-2.8,1.1-2.9,2.6c-0.1,1.5,1.1,2.8,2.6,2.9c1.5,0.1,2.8-1.1,2.9-2.6
		C511.4,388.7,510.2,387.4,508.7,387.3"/>
	<path id="path748" fill="#FFFFFF" d="M518,390.8c-1.4-0.1-2.6,1-2.7,2.5c-0.1,1.4,1,2.6,2.5,2.7c1.4,0.1,2.6-1,2.7-2.5
		C520.5,392.1,519.4,390.9,518,390.8"/>
	<path id="path750" fill="#FFFFFF" d="M526.3,396.2c-1.3-0.1-2.4,1-2.5,2.3c-0.1,1.3,1,2.4,2.3,2.5c1.3,0.1,2.4-1,2.5-2.3
		C528.6,397.4,527.6,396.2,526.3,396.2"/>
	<path id="path752" fill="#FFFFFF" d="M533.4,403.7c-1.2-0.1-2.2,0.9-2.3,2.1c-0.1,1.2,0.9,2.2,2.1,2.3s2.2-0.9,2.3-2.1
		C535.5,404.8,534.6,403.7,533.4,403.7"/>
	<path id="path754" fill="#FFFFFF" d="M539.3,413.6c-1.1,0-2,0.8-2.1,1.9c0,1.1,0.8,2,1.9,2.1c1.1,0.1,2-0.8,2.1-1.9
		C541.2,414.5,540.3,413.6,539.3,413.6"/>
	<path id="path756" fill="#FFFFFF" d="M543.8,426.1c-1,0-1.8,0.7-1.9,1.7c0,1,0.7,1.8,1.7,1.9c1,0,1.8-0.7,1.9-1.7
		C545.5,426.9,544.8,426.1,543.8,426.1"/>
	<path id="path758" fill="#FFFFFF" d="M316.4,407.5c-1,0.5-1.9,1.1-2.8,1.6c-0.8,0.6-1.7,1.1-2.4,1.6c-0.8,0.5-1.4,1.1-2.1,1.6
		l-0.1,0.1c-0.3,0.2-0.6,0.5-0.9,0.7c-0.3,0.3-0.6,0.5-0.8,0.7c-0.5,0.5-1,0.9-1.5,1.3c-0.8,0.8-1.5,1.5-1.9,2
		c-0.4,0.5-0.7,0.7-0.7,0.7l1.4,1.2c0,0,0.2-0.2,0.6-0.7c0.4-0.4,1-1.1,1.8-1.9l0.3-0.3c0.3-0.3,0.7-0.7,1.1-1
		c0.3-0.2,0.5-0.5,0.8-0.7c0.3-0.2,0.6-0.5,0.9-0.7c0.6-0.5,1.3-1.1,2-1.6c0.7-0.5,1.5-1,2.3-1.6c0.8-0.5,1.7-1,2.6-1.6
		c0.9-0.5,1.9-1,2.9-1.5c2.1-0.9,4.3-1.8,6.6-2.6c0.6-0.2,1.2-0.4,1.8-0.6c0.6-0.2,1.2-0.3,1.8-0.5c1.2-0.3,2.5-0.6,3.8-0.9
		c2.6-0.5,5.2-0.9,7.8-1.2c5.5-0.6,11-0.7,16.1-0.6c4.8,0,9.3,0.2,13.1,0.3c2,0,3.8,0,5.5,0c1.6-0.1,3-0.2,4.2-0.4
		c1.1-0.2,2-0.5,2.6-0.7c0.6-0.3,0.9-0.4,0.9-0.4s-0.3,0.1-0.9,0.4c-0.6,0.2-1.5,0.5-2.6,0.6c-1.2,0.2-2.6,0.3-4.2,0.3
		c-1.6,0-3.4,0-5.4-0.1c-4.5-0.2-9.9-0.5-15.7-0.6c-1,0-2,0-3,0c-3.5,0-7,0.1-10.6,0.4c-2.7,0.2-5.3,0.6-7.9,1
		c-1.3,0.3-2.6,0.5-3.8,0.8c-0.6,0.2-1.3,0.3-1.9,0.4c-0.6,0.2-1.2,0.4-1.8,0.5c-2.4,0.7-4.7,1.6-6.8,2.5
		C318.3,406.5,317.3,407,316.4,407.5"/>
	<path id="path760" fill="#FFFFFF" d="M322.1,432.5l2.1,1.8c0.5,0.4,0.9,0.8,1.4,1.3c0.3,0.3,0.6,0.5,0.8,0.8c0.5,0.5,1,1,1.5,1.5
		c0.3,0.3,0.6,0.6,0.9,0.9c0.6,0.7,1.2,1.4,1.8,2.2l0.6,0.7c0.3,0.4,0.5,0.8,0.8,1.2c0.5,0.7,1,1.4,1.5,2.1c1.3,2,2.7,4.4,4.3,7.5
		c1,2.1,2.5,5.2,3.8,8.5c1.1,2.7,2.2,5.6,3.2,8.6l0.2,0.4c1.3,3.8,2.6,7.7,3.8,11.4c0.7,2.3,1.5,4.6,2.2,6.8c1,3.1,2,5.8,2.9,8.3
		l0.2,0.5c1.1,2.8,2,4.9,2.8,6.8c0.6,1.3,1.1,2.3,1.5,3.2c0.5,1,1,2,1.5,2.8c0.2,0.5,0.5,0.9,0.8,1.3c0.2,0.4,0.4,0.7,0.7,1.1
		l1.7,2.6c0.2,0.4,0.5,0.7,0.7,1l1.6,2l-0.7-2.7c-0.2-0.3-0.4-0.6-0.6-0.9l-1-1.5l-0.6-1.1c-0.4-0.7-0.9-1.5-1.4-2.4
		c-0.4-0.8-0.9-1.7-1.4-2.8c-0.4-0.9-0.9-1.9-1.4-3.2c-0.9-2-1.8-4.3-2.8-7.3c-0.9-2.5-1.8-5.2-2.7-8.3c-0.7-2.2-1.4-4.5-2.1-6.8
		c-1.1-3.8-2.3-7.6-3.6-11.5c-0.2-0.7-0.5-1.4-0.7-2.1l-0.2-0.7c-0.5-1.3-0.9-2.7-1.4-4l-0.2-0.7c-0.2-0.6-0.4-1.1-0.6-1.7
		c-1-2.6-2.2-5.4-3.8-8.7c-1.6-3.2-3-5.7-4.3-7.8c-0.5-0.8-1-1.6-1.5-2.3c-0.3-0.4-0.5-0.8-0.8-1.2l-0.5-0.7
		c-0.6-0.8-1.2-1.6-1.9-2.4c-0.3-0.3-0.6-0.6-0.8-1c-0.5-0.6-1-1.2-1.6-1.7l-0.8-0.8c-0.5-0.5-1-1-1.6-1.5l-2.2-1.9l-1.9-1.4
		l-4.3-2.9l-1.5,2.6l2.6,1.6L322.1,432.5"/>
	<path id="path762" fill="#FFFFFF" d="M254.4,475.9c0.1-1.9,0.3-3.6,0.6-5.3c0.3-1.7,0.7-3.5,1.2-5.5c0.2-0.6,0.3-1.2,0.5-1.8
		c0.1-0.3,0.2-0.7,0.3-1l0.3-0.9c0.2-0.6,0.4-1.3,0.7-1.9c0.9-2.2,1.6-3.9,2.4-5.3c0.8-1.5,1.7-3.1,2.8-4.9c1.1-1.7,2-3.1,3-4.4
		c1-1.3,2-2.6,3-3.7c2-2.3,3.7-4.1,4.9-5.1c1.2-1.2,2-1.7,2-1.8c0.6-0.5,0.7-1.5,0.2-2.1c-0.5-0.6-1.5-0.7-2.1-0.2
		c0,0-0.8,0.7-2.1,2c-1.1,1.1-2.9,3-4.9,5.5c-1,1.2-2,2.6-2.9,3.9c-1,1.4-1.9,2.9-3,4.6c-1.1,1.9-2,3.6-2.7,5.2
		c-0.8,1.6-1.5,3.3-2.3,5.6c-0.2,0.7-0.5,1.3-0.7,2l-0.3,0.9c-0.1,0.3-0.2,0.7-0.3,1c-0.2,0.6-0.4,1.3-0.5,1.9
		c-0.5,2.1-0.9,4-1.1,5.8c-0.2,1.7-0.4,3.5-0.5,5.5l0,0.9c0,0.6,0,1.1,0,1.6l0.1,2.3c0,0.5,0.1,1,0.1,1.5c0,0.2,0,0.5,0.1,0.7
		l0.1,0.6c0,0.5,0.1,0.9,0.2,1.3c0.1,0.4,0.1,0.8,0.2,1.2c0.1,0.7,0.2,1.4,0.3,1.9l0.6,2.7l0.7-2.9c-0.1-0.5-0.2-1.1-0.2-1.8
		c0-0.4-0.1-0.8-0.2-1.3c-0.1-0.4-0.1-0.8-0.1-1.2c0-0.2,0-0.4,0-0.6c0-0.2,0-0.5,0-0.8c0-0.4-0.1-0.9-0.1-1.4l0-2.3
		c0-0.5,0-1,0.1-1.6L254.4,475.9"/>
	<path id="path764" fill="#FFFFFF" d="M281,403.9c-18.6-2.7-60.2,18.6-65.9,35.7C227.9,416.6,264.7,406.2,281,403.9"/>
</g>
</svg>
