<?xml version="1.0" encoding="UTF-8" standalone="no"?>
<!-- Created with Inkscape (http://www.inkscape.org/) -->
<svg
   xmlns:dc="http://purl.org/dc/elements/1.1/"
   xmlns:cc="http://web.resource.org/cc/"
   xmlns:rdf="http://www.w3.org/1999/02/22-rdf-syntax-ns#"
   xmlns:svg="http://www.w3.org/2000/svg"
   xmlns="http://www.w3.org/2000/svg"
   xmlns:sodipodi="http://sodipodi.sourceforge.net/DTD/sodipodi-0.dtd"
   xmlns:inkscape="http://www.inkscape.org/namespaces/inkscape"
   width="650"
   height="500"
   id="svg2"
   sodipodi:version="0.32"
   inkscape:version="0.45.1"
   version="1.0"
   sodipodi:docbase="C:\Documents and Settings\Jeff\My Documents\InkscapeWork"
   sodipodi:docname="Eye of Horus_bw.svg"
   inkscape:output_extension="org.inkscape.output.svg.inkscape">
  <defs
     id="defs4" />
  <sodipodi:namedview
     id="base"
     pagecolor="#ffffff"
     bordercolor="#666666"
     borderopacity="1.0"
     gridtolerance="10000"
     guidetolerance="10"
     objecttolerance="10"
     inkscape:pageopacity="0.0"
     inkscape:pageshadow="2"
     inkscape:zoom="0.7"
     inkscape:cx="323.89721"
     inkscape:cy="189.69226"
     inkscape:document-units="px"
     inkscape:current-layer="layer1"
     height="500px"
     width="650px"
     inkscape:window-width="1024"
     inkscape:window-height="712"
     inkscape:window-x="1024"
     inkscape:window-y="22" />
  <metadata
     id="metadata7">
    <rdf:RDF>
      <cc:Work
         rdf:about="">
        <dc:format>image/svg+xml</dc:format>
        <dc:type
           rdf:resource="http://purl.org/dc/dcmitype/StillImage" />
      </cc:Work>
    </rdf:RDF>
  </metadata>
  <g
     inkscape:label="Layer 1"
     inkscape:groupmode="layer"
     id="layer1">
    <path
       style="fill:#ffffff;stroke:none;stroke-opacity:1"
       d="M 285.24055,246.55313 C 304.38564,244.17942 318.20184,240.50702 331.24055,234.32614 C 339.95,230.1975 362.17215,215.15051 362.56385,213.11661 C 362.98188,210.94588 358.0011,205.14536 351.33252,200.03687 C 344.35888,194.69468 328.09822,187.0824 317.24055,184.07702 C 297.6608,178.65739 288.63687,176.4376 286.18469,176.4376 L 283.61988,176.4376 L 284.43021,186.1876 C 284.8759,191.5501 285.1504,199.16138 285.04022,203.10156 C 284.69478,215.45517 279.57957,231.28314 272.5879,241.63273 C 270.47186,244.76505 268.74055,247.62482 268.74055,247.98777 C 268.74055,248.35071 270.42805,248.42747 272.49055,248.15833 C 274.55305,247.8892 280.29055,247.16686 285.24055,246.55313 z "
       id="path2227" />
    <path
       id="path2225"
       d="M 140.86292,465.52759 C 134.0202,464.05926 132.14925,460.08134 128.6817,439.62841 C 127.60539,433.27984 125.19079,422.68556 123.31597,416.08556 C 121.44113,409.48556 119.12969,400.71056 118.1794,396.58556 C 115.15753,383.4681 112.53691,376.25406 108.50995,369.96751 C 101.95736,359.73821 102.20884,349.04661 109.22686,339.48615 C 115.5569,330.86291 116.05384,328.36564 115.77394,306.58556 C 115.63611,295.86056 115.20991,285.29991 114.82683,283.11746 C 113.94606,278.09958 110.212,275.42513 100.92269,273.15887 C 92.439947,271.0894 84.397727,270.86555 58.956167,271.99078 C 40.812584,272.79323 38.498874,272.71401 36.206174,271.21177 C 30.579144,267.5248 33.253504,262.37126 48.466684,247.58556 C 64.156347,232.33676 72.342547,222.89786 87.277787,202.83528 C 114.11652,166.78268 118.28445,163.25486 144.65389,154.27087 C 162.72916,148.11267 169.23479,147.33927 207.04157,146.85415 C 229.77668,146.56242 245.45171,146.80756 252.04157,147.55792 C 277.26084,150.42951 318.41378,161.81021 344.0992,173.01614 C 357.6798,178.94102 358.14113,179.18846 374.214,189.16852 C 386.19467,196.60762 392.98573,199.48853 409.65389,204.20286 C 425.93009,208.80633 443.79686,211.19571 472.15388,212.5612 C 484.80388,213.17034 498.07889,214.07917 501.65388,214.58082 C 508.52968,215.54566 550.95151,218.09575 576.15388,219.05921 C 606.84287,220.23243 609.71642,220.55718 612.30392,223.14468 C 614.3354,225.17616 614.64038,226.41563 614.55421,232.29011 C 614.49939,236.02761 614.13537,240.21056 613.7453,241.58556 C 613.05217,244.02877 612.84433,244.0793 604.59498,243.80998 C 599.95237,243.65842 592.55388,243.11439 588.15388,242.60104 C 583.75388,242.08768 574.07888,241.17175 566.65388,240.56562 C 559.22889,239.9595 548.87888,238.99779 543.65388,238.42849 C 531.80884,237.13788 503.57586,236.08756 438.15389,234.50368 L 387.15389,233.26896 L 371.15389,240.7502 C 355.48919,248.07466 338.17868,254.58097 314.15389,262.17414 C 307.55388,264.26011 300.32857,266.76352 298.09762,267.73728 C 293.39177,269.79128 280.23588,272.23584 266.65389,273.57998 C 250.0829,275.21992 233.44622,278.55449 230.27835,280.8709 C 228.53276,282.1473 228.61631,282.48798 231.95502,287.70722 C 235.51921,293.27896 246.22969,303.51696 261.65389,316.09598 C 266.32889,319.90862 272.85357,325.43561 276.15319,328.37819 C 286.26496,337.39582 313.01259,354.70845 343.65389,372.0686 C 351.62889,376.58692 361.30388,382.2329 365.15389,384.61522 C 373.90985,390.03328 411.99836,409.32326 424.54608,414.69448 C 446.76752,424.20667 462.0965,429.34952 474.65388,431.5056 C 492.79555,434.62049 518.39622,435.9815 532.10017,434.55962 C 555.90509,432.0897 565.09416,429.01897 579.77528,418.62799 C 590.90977,410.74723 595.23805,405.86804 602.62409,392.86348 C 605.86299,387.02378 607.04092,384.15889 608.12905,380.21183 C 609.11986,376.30186 609.19674,375.47047 609.66724,371.11094 C 609.69159,369.23443 609.80446,366.50711 609.69725,365.13097 C 609.40351,361.36069 608.33906,355.29299 605.87222,349.14951 C 600.5039,335.78021 592.19975,329.59376 579.65388,329.61729 C 567.90749,329.63933 559.11434,335.75392 556.14615,345.96415 C 552.37942,358.92128 558.22517,371.39212 569.91467,374.79036 C 573.19866,375.74504 575.80562,375.75886 578.00958,374.98053 C 580.18411,374.2126 582.34514,373.05235 583.99826,370.885 C 587.31179,366.54075 587.71823,358.85891 585.35418,355.25092 C 583.07849,351.77777 578.10827,349.97557 574.5302,351.32614 C 570.91767,352.68972 570.47333,350.52586 573.8764,348.14226 C 578.2736,345.06235 586.31456,347.40763 590.15464,352.89009 C 591.09637,354.23461 592.49929,357.74281 592.53822,361.73395 C 592.57272,365.27009 592.23033,368.88796 591.47115,370.89165 C 589.11832,377.10144 580.62909,382.58556 573.73123,382.58556 C 567.90937,382.58556 559.52633,379.10567 554.33047,374.53208 C 548.1376,369.08091 545.66677,363.10707 546.46571,352.1663 C 547.34409,340.1377 549.33546,336.05738 556.66407,329.02008 C 561.98805,323.90773 564.53919,323.42273 570.72858,321.54276 C 579.95912,318.73907 589.12641,320.84269 596.88263,324.46725 C 606.10364,328.77631 612.75114,335.05155 616.50002,346.56374 C 619.08456,354.50042 619.84739,361.6936 619.48293,369.06489 C 619.03796,378.06433 618.83912,387.37192 613.7894,397.74347 C 604.79552,416.21584 597.42396,423.12743 585.65388,430.83766 C 560.57908,447.26344 522.54567,455.3555 488.15388,451.58194 C 483.75388,451.09916 475.87888,450.24368 470.65388,449.68089 C 454.13563,447.90166 427.77182,439.94431 407.65918,430.6673 C 400.78128,427.49483 392.90389,424.07427 390.15389,423.06605 C 385.31673,421.29262 337.78481,398.11452 328.65389,393.07666 C 326.17888,391.71111 318.30388,387.62844 311.15389,384.00405 C 304.00389,380.37966 297.69154,377.03081 297.12644,376.56216 C 296.56135,376.09351 290.26135,372.48315 283.12644,368.53912 C 275.99154,364.5951 267.00389,359.01506 263.15389,356.13903 C 259.30388,353.263 251.65389,347.96187 246.15389,344.35873 C 235.33811,337.27315 210.1074,318.79338 199.69782,310.33283 C 180.85222,295.01578 169.18688,287.52009 166.64236,289.09268 C 166.02651,289.4733 165.65247,301.08481 165.65015,319.89458 C 165.64659,348.65262 165.54825,350.24656 163.57844,353.47765 C 160.29911,358.85671 158.6434,371.20301 157.59627,398.08556 C 155.9636,439.99991 154.92127,459.00037 154.15234,460.86334 C 152.75604,464.24636 145.97816,466.62522 140.86292,465.52759 z M 169.18287,256.93606 C 171.62338,255.99956 170.9015,254.83157 165.34538,250.72703 C 162.42571,248.57014 157.93228,244.46457 155.35996,241.60354 C 151.44277,237.24668 150.17273,234.75154 147.54164,226.24361 C 144.0585,214.9804 142.29729,198.80995 143.31915,187.4753 C 143.72324,182.99322 143.54569,180.63672 142.76765,180.15587 C 141.09891,179.12454 128.99859,187.03997 120.31224,194.84507 C 116.18316,198.55524 110.71833,204.57561 108.16816,208.22366 C 103.03515,215.56649 98.154617,221.56296 89.153887,231.58556 C 79.851307,241.94427 74.653887,248.35934 74.653887,249.48261 C 74.653887,251.05468 81.119977,252.37779 92.153887,253.06348 C 101.23301,253.62769 115.32696,255.02864 137.15389,257.53651 C 145.02121,258.44045 166.30217,258.04149 169.18287,256.93606 z M 285.15389,246.70109 C 304.29898,244.32738 318.11518,240.65498 331.15389,234.4741 C 339.86334,230.34546 362.08549,215.29847 362.47719,213.26457 C 362.89522,211.09384 357.91444,205.29332 351.24586,200.18483 C 344.27222,194.84264 328.01156,187.23036 317.15389,184.22498 C 297.57414,178.80535 288.55021,176.58556 286.09803,176.58556 L 283.53322,176.58556 L 284.34355,186.33556 C 284.78924,191.69806 285.06374,199.30934 284.95356,203.24952 C 284.60812,215.60313 279.49291,231.4311 272.50124,241.78069 C 270.3852,244.91301 268.65389,247.77278 268.65389,248.13573 C 268.65389,248.49867 270.34139,248.57543 272.40389,248.30629 C 274.46639,248.03716 280.20389,247.31482 285.15389,246.70109 z M 586.65388,143.91375 C 570.09565,143.41372 534.12768,140.64082 523.15388,139.01831 C 512.78798,137.48568 472.17663,129.45679 465.15388,127.55168 C 451.47564,123.84108 419.71235,111.88934 412.65389,107.79723 C 410.72889,106.68122 400.37889,102.34692 389.65389,98.165457 C 378.92888,93.983987 367.67888,89.383217 364.65389,87.941507 C 355.5861,83.619827 330.50117,75.766434 317.41456,73.152194 C 288.26712,67.329564 223.05508,64.522924 189.65389,67.653544 C 174.14363,69.107294 134.37696,77.047954 120.15389,81.531397 C 89.580807,91.168757 78.530147,94.966097 67.653887,99.572007 C 60.778897,102.48346 53.951871,104.87755 52.482731,104.89222 C 46.495664,104.952 40.830034,97.613057 42.166334,91.528927 C 43.184034,86.895367 46.197664,83.995347 54.919441,79.256617 C 65.970907,73.252094 96.459347,60.214804 110.58227,55.454374 C 122.87912,51.309474 151.04499,44.633734 169.65389,41.453504 C 204.12814,35.561914 299.64113,40.075804 333.15389,49.180424 C 371.43845,59.581424 377.45561,61.878344 414.15389,80.100407 C 450.03114,97.914797 484.98321,110.82625 508.65388,115.00913 C 529.32571,118.66208 592.39883,124.63831 609.87821,124.60021 C 616.42072,124.58596 616.64674,124.67106 618.23774,127.74771 C 620.08927,131.32818 621.36337,142.04394 620.03034,142.82431 C 618.6908,143.60849 598.43735,144.26958 586.65388,143.91375 z "
       style="fill:#000000;stroke:#000000;stroke-opacity:1"
       sodipodi:nodetypes="csssssssssssssssssssssssssssscccssssssssssssscccsssssssssssssssssssssssssssssssssssssssccsssssssssssccsssscccssssccssssssssssssssssssssc" />
    <path
       style="fill:#ffffff;fill-opacity:1;stroke:none;stroke-opacity:1"
       d="M 169.77461,256.66183 C 172.21512,255.72533 171.49324,254.55734 165.93712,250.4528 C 163.01745,248.29591 158.52402,244.19034 155.9517,241.32931 C 152.03451,236.97245 150.76447,234.47731 148.13338,225.96938 C 144.65024,214.70617 142.88903,198.53572 143.91089,187.20107 C 144.31498,182.71899 144.13743,180.36249 143.35939,179.88164 C 141.69065,178.85031 129.59033,186.76574 120.90398,194.57084 C 116.7749,198.28101 111.31007,204.30138 108.7599,207.94943 C 103.62689,215.29226 98.746353,221.28873 89.745623,231.31133 C 80.443043,241.67004 75.245623,248.08511 75.245623,249.20838 C 75.245623,250.78045 81.711713,252.10356 92.745623,252.78925 C 101.82475,253.35346 115.9187,254.75441 137.74563,257.26228 C 145.61295,258.16622 166.89391,257.76726 169.77461,256.66183 z "
       id="path4191" />
    <path
       style="fill:#1c1b26"
       d="M 173.00718,256.14144 C 167.69342,252.86538 159.61928,246.10274 155.34295,241.34642 C 146.9424,232.00298 142.27368,211.07467 143.14098,186.64916 C 143.30072,182.15056 143.76377,177.93212 144.17,177.27485 C 145.52857,175.07664 158.03982,170.09638 167.13688,168.13261 C 179.04899,165.56115 210.32675,164.61093 228.74576,166.26093 C 245.62985,167.77343 273.72518,171.97826 279.63688,173.87744 C 284.10908,175.31417 284.13757,175.35246 284.24826,180.07577 C 284.30952,182.68974 284.49853,190.45344 284.6683,197.32844 C 285.00078,210.79359 283.95421,216.59162 278.89217,229.32844 C 275.53383,237.77846 267.90532,249.23509 265.22597,249.85252 C 258.13335,251.48695 239.37209,253.57236 220.24601,254.85227 C 181.92324,257.41681 175.36608,257.59575 173.00718,256.14144 z "
       id="path6137" />
  </g>
</svg>
